<svg width="18" height="18" viewBox="0 0 18 18" fill="none" xmlns="http://www.w3.org/2000/svg">
<g clip-path="url(#clip0_4231_2857)">
<path d="M5.48438 7.3125C5.48438 7.52344 5.44336 7.72266 5.36133 7.91016C5.2793 8.09766 5.16797 8.26172 5.02734 8.40234C4.88672 8.54297 4.72266 8.6543 4.53516 8.73633C4.34766 8.81836 4.14844 8.85938 3.9375 8.85938C3.72656 8.85938 3.52734 8.81836 3.33984 8.73633C3.15234 8.6543 2.98828 8.54297 2.84766 8.40234C2.70703 8.26172 2.5957 8.09766 2.51367 7.91016C2.43164 7.72266 2.39062 7.52344 2.39062 7.3125C2.39062 7.10156 2.43164 6.90234 2.51367 6.71484C2.5957 6.52734 2.70703 6.36328 2.84766 6.22266C2.98828 6.08203 3.15234 5.9707 3.33984 5.88867C3.52734 5.80664 3.72656 5.76562 3.9375 5.76562C4.14844 5.76562 4.34766 5.80664 4.53516 5.88867C4.72266 5.9707 4.88672 6.08203 5.02734 6.22266C5.16797 6.36328 5.2793 6.52734 5.36133 6.71484C5.44336 6.90234 5.48438 7.10156 5.48438 7.3125ZM3.9375 8.01562C4.13086 8.01562 4.29492 7.94824 4.42969 7.81348C4.56445 7.67871 4.63477 7.51172 4.64062 7.3125C4.64062 7.11914 4.57324 6.95508 4.43848 6.82031C4.30371 6.68555 4.13672 6.61523 3.9375 6.60938C3.74414 6.60938 3.58008 6.67676 3.44531 6.81152C3.31055 6.94629 3.24023 7.11328 3.23438 7.3125C3.23438 7.50586 3.30176 7.66992 3.43652 7.80469C3.57129 7.93945 3.73828 8.00977 3.9375 8.01562ZM8.4375 9.14062C8.64844 9.14062 8.84766 9.18164 9.03516 9.26367C9.22266 9.3457 9.38672 9.45703 9.52734 9.59766C9.66797 9.73828 9.7793 9.90234 9.86133 10.0898C9.94336 10.2773 9.98438 10.4766 9.98438 10.6875C9.98438 10.8984 9.94336 11.0977 9.86133 11.2852C9.7793 11.4727 9.66797 11.6367 9.52734 11.7773C9.38672 11.918 9.22266 12.0293 9.03516 12.1113C8.84766 12.1934 8.64844 12.2344 8.4375 12.2344C8.22656 12.2344 8.02734 12.1934 7.83984 12.1113C7.65234 12.0293 7.48828 11.918 7.34766 11.7773C7.20703 11.6367 7.0957 11.4727 7.01367 11.2852C6.93164 11.0977 6.89062 10.8984 6.89062 10.6875C6.89062 10.4766 6.93164 10.2773 7.01367 10.0898C7.0957 9.90234 7.20703 9.73828 7.34766 9.59766C7.48828 9.45703 7.65234 9.3457 7.83984 9.26367C8.02734 9.18164 8.22656 9.14062 8.4375 9.14062ZM8.4375 11.3906C8.63086 11.3906 8.79492 11.3232 8.92969 11.1885C9.06445 11.0537 9.13477 10.8867 9.14062 10.6875C9.14062 10.4941 9.07324 10.3301 8.93848 10.1953C8.80371 10.0605 8.63672 9.99023 8.4375 9.98438C8.24414 9.98438 8.08008 10.0518 7.94531 10.1865C7.81055 10.3213 7.74023 10.4883 7.73438 10.6875C7.73438 10.8809 7.80176 11.0449 7.93652 11.1797C8.07129 11.3145 8.23828 11.3848 8.4375 11.3906ZM7.40039 5.625H8.34961L4.97461 12.375H4.02539L7.40039 5.625ZM12.375 3.375L18 9L12.375 14.625H0V3.375H12.375ZM11.9092 13.5L16.4092 9L11.9092 4.5H1.125V13.5H11.9092ZM13.5 8.4375C13.6523 8.4375 13.7842 8.49316 13.8955 8.60449C14.0068 8.71582 14.0625 8.84766 14.0625 9C14.0625 9.15234 14.0068 9.28418 13.8955 9.39551C13.7842 9.50684 13.6523 9.5625 13.5 9.5625C13.3477 9.5625 13.2158 9.50684 13.1045 9.39551C12.9932 9.28418 12.9375 9.15234 12.9375 9C12.9375 8.84766 12.9932 8.71582 13.1045 8.60449C13.2158 8.49316 13.3477 8.4375 13.5 8.4375Z" fill="black"/>
</g>
<defs>
<clipPath id="clip0_4231_2857">
<rect width="18" height="18" fill="white"/>
</clipPath>
</defs>
</svg>
