<!DOCTYPE svg PUBLIC "-//W3C//DTD SVG 1.1//EN" "http://www.w3.org/Graphics/SVG/1.1/DTD/svg11.dtd">
<!-- Uploaded to: SVG Repo, www.svgrepo.com, Transformed by: SVG Repo Mixer Tools -->
<svg width="800px" height="800px" viewBox="0 0 1024 1024" class="icon" version="1.1" xmlns="http://www.w3.org/2000/svg" fill="#000000">
<g id="SVGRepo_bgCarrier" stroke-width="0"/>
<g id="SVGRepo_tracerCarrier" stroke-linecap="round" stroke-linejoin="round"/>
<g id="SVGRepo_iconCarrier">
<path d="M841.2 841.1H182.9V182.9h292.5v-73.2H109.7v804.6h804.6V621.7h-73.1z" fill="#000"/>
<path d="M402.3 585.1h73.1c0-100.8 82-182.9 182.9-182.9s182.9 82 182.9 182.9h73.1c0-102.2-60.2-190.6-147-231.6 23.2-25.9 37.3-60.1 37.3-97.5 0-80.8-65.5-146.3-146.3-146.3-80.8 0-146.3 65.5-146.3 146.3 0 37.5 14.1 71.7 37.3 97.5-86.8 41.1-147 129.4-147 231.6z m256-402.2c40.3 0 73.1 32.8 73.1 73.1s-32.8 73.1-73.1 73.1-73.1-32.8-73.1-73.1 32.8-73.1 73.1-73.1zM219.4 256h219.4v73.1H219.4zM219.4 658.3h585.1v73.1H219.4zM219.4 402.3h146.3v73.1H219.4z" fill="#000"/>
</g>
</svg>