<svg width="16" height="20" viewBox="0 0 16 20" fill="none" xmlns="http://www.w3.org/2000/svg">
<path d="M12.037 4.82804C12.037 4.94037 12.033 5.0527 12.025 5.16503C12.0209 5.2212 12.0149 5.27536 12.0089 5.33152C12.0048 5.36562 12.0169 5.43784 12.0089 5.33353C12.0109 5.36763 11.9988 5.40975 11.9928 5.44185C11.9566 5.6645 11.9023 5.88515 11.8319 6.09979C11.7977 6.20209 11.7595 6.30238 11.7213 6.40067C11.6871 6.48693 11.7595 6.31843 11.7193 6.40268C11.7092 6.42675 11.6972 6.45082 11.6871 6.47489C11.661 6.53106 11.6348 6.58722 11.6047 6.64138C11.5082 6.82994 11.3976 7.01047 11.2749 7.18298C11.2488 7.22109 11.2186 7.28127 11.1804 7.30935C11.2508 7.25519 11.2025 7.28127 11.1784 7.31136C11.1623 7.33142 11.1462 7.35147 11.1281 7.37153C11.0557 7.45979 10.9793 7.54404 10.8989 7.62428C10.8265 7.7005 10.7501 7.77272 10.6716 7.84292C10.6314 7.87702 10.5932 7.91313 10.553 7.94522C10.5329 7.96127 10.5128 7.97932 10.4927 7.99537C10.4786 8.0054 10.4645 8.01744 10.4504 8.02747C10.4967 7.99136 10.5027 7.98735 10.4685 8.01342C10.2976 8.1398 10.1227 8.25614 9.93767 8.35644C9.84517 8.40859 9.75065 8.45472 9.65413 8.50086C9.63 8.5129 9.60587 8.52293 9.58174 8.53295C9.49527 8.57107 9.6662 8.49885 9.57973 8.53496C9.52141 8.55903 9.4631 8.5811 9.40478 8.60316C9.19163 8.67939 8.97446 8.73956 8.75326 8.78369C8.69897 8.79372 8.64467 8.80375 8.59038 8.81178C8.56625 8.81579 8.53408 8.82582 8.50793 8.82381C8.58837 8.82983 8.56424 8.81579 8.53206 8.8198C8.41141 8.83184 8.29076 8.84387 8.17011 8.84788C7.93483 8.85591 7.70358 8.84387 7.47032 8.8198C7.3738 8.80977 7.56282 8.83384 7.46831 8.8198C7.44016 8.81579 7.41402 8.81178 7.38587 8.80776C7.33157 8.79974 7.27728 8.78971 7.225 8.77768C7.11038 8.75361 6.99576 8.72552 6.88114 8.69343C6.77858 8.66334 6.67603 8.63124 6.57347 8.59313C6.53124 8.57708 6.48902 8.56104 6.4488 8.54499C6.44075 8.54098 6.43271 8.53897 6.42467 8.53496C6.38445 8.51891 6.39249 8.52092 6.44679 8.54499C6.42065 8.54499 6.37238 8.5129 6.35026 8.50086C6.14918 8.40859 5.95613 8.30228 5.77113 8.17991C5.72689 8.15183 5.68265 8.12174 5.64043 8.09165C5.60222 8.06558 5.54189 8.03549 5.51374 7.99738C5.56803 8.06758 5.54189 8.01944 5.51173 7.99537C5.49162 7.97932 5.47151 7.96328 5.4514 7.94522C5.40515 7.90511 5.35689 7.86499 5.31265 7.82487C5.15581 7.68446 5.01102 7.53201 4.87629 7.37153C4.86021 7.35147 4.84211 7.33142 4.82602 7.31136C4.80189 7.28127 4.75162 7.25519 4.82401 7.30935C4.78782 7.28127 4.75765 7.21908 4.7295 7.18298C4.66314 7.09071 4.6008 6.99442 4.54249 6.89613C4.4882 6.80587 4.43591 6.71359 4.38966 6.61731C4.36553 6.56917 4.34341 6.52303 4.31928 6.47489C4.30722 6.45082 4.29716 6.42675 4.28711 6.40268C4.26901 6.36256 4.27303 6.37058 4.29515 6.42474C4.28912 6.4087 4.28108 6.39265 4.27504 6.3746C4.19461 6.17601 4.12825 5.9694 4.07798 5.76079C4.05184 5.65447 4.02972 5.54816 4.01363 5.43984C4.00961 5.41176 4.00559 5.38568 4.00156 5.3576C3.98749 5.26132 4.01162 5.45188 4.00156 5.35559C3.99553 5.29141 3.98749 5.22722 3.98347 5.16303C3.96537 4.93034 3.96738 4.69565 3.98548 4.46296C3.9895 4.4068 3.99553 4.35264 4.00156 4.29647C4.01162 4.20019 3.98749 4.38875 4.00156 4.29447C4.00559 4.26639 4.00961 4.24031 4.01363 4.21223C4.03374 4.09588 4.05586 3.97954 4.08602 3.8652C4.1383 3.65659 4.20667 3.45199 4.28711 3.2534C4.32129 3.16715 4.2489 3.33564 4.28912 3.25139C4.29917 3.22732 4.31124 3.20325 4.32129 3.17918C4.34341 3.13104 4.36754 3.0829 4.39167 3.03676C4.44396 2.93446 4.50026 2.83417 4.55858 2.73588C4.61287 2.64561 4.67118 2.55735 4.73352 2.4711C4.75966 2.43298 4.78983 2.37281 4.82803 2.34472C4.75765 2.39888 4.80591 2.37281 4.83004 2.34272C4.85216 2.31464 4.87428 2.28856 4.8964 2.26248C5.03113 2.10201 5.17994 1.95157 5.33678 1.81115C5.377 1.77705 5.41521 1.74095 5.45543 1.70885C5.47553 1.6928 5.49564 1.67475 5.51575 1.6587C5.54592 1.63463 5.57206 1.58448 5.51776 1.6567C5.54592 1.62059 5.60825 1.5905 5.64445 1.56242C5.69472 1.52631 5.74499 1.49221 5.79727 1.45811C5.98227 1.33776 6.17733 1.23144 6.37842 1.14118C6.3945 1.13315 6.43271 1.10908 6.45081 1.10908C6.43472 1.1151 6.41863 1.12313 6.40456 1.12914C6.42065 1.12313 6.43673 1.1151 6.45483 1.10908C6.49706 1.09304 6.53728 1.07699 6.5795 1.06094C6.68809 1.02082 6.8007 0.984717 6.91331 0.952623C7.01788 0.922534 7.12445 0.898463 7.23103 0.876398C7.28532 0.866369 7.33962 0.856339 7.3919 0.84631C7.42005 0.842298 7.44619 0.838286 7.47434 0.834274C7.51858 0.828256 7.51054 0.828256 7.45021 0.838286C7.46831 0.83628 7.48641 0.834274 7.50451 0.832268C7.73777 0.806191 7.97103 0.798168 8.2063 0.808197C8.31288 0.812209 8.41945 0.822239 8.52603 0.834274C8.56223 0.838286 8.60848 0.82625 8.51598 0.832268C8.54011 0.830262 8.57228 0.840292 8.59842 0.844304C8.66076 0.854333 8.72511 0.866369 8.78744 0.878404C9.00864 0.922534 9.22582 0.984717 9.43696 1.06295C9.48723 1.081 9.5375 1.10106 9.58576 1.12112C9.67223 1.15522 9.50332 1.08301 9.58777 1.12313C9.6119 1.13315 9.63603 1.14519 9.66017 1.15522C9.76473 1.20336 9.86728 1.25552 9.96783 1.31168C10.0603 1.36383 10.1508 1.41799 10.2393 1.47617C10.2755 1.50024 10.3117 1.52431 10.3479 1.55038C10.3921 1.58047 10.4645 1.61658 10.4967 1.6587C10.4424 1.5885 10.4685 1.63664 10.4987 1.66071C10.5188 1.67676 10.5389 1.6928 10.559 1.71086C10.5992 1.74496 10.6395 1.77906 10.6777 1.81316C10.7621 1.88938 10.8446 1.96761 10.923 2.04986C10.9954 2.12608 11.0658 2.20431 11.1341 2.28455C11.1502 2.30461 11.1683 2.32466 11.1844 2.34472C11.2085 2.37481 11.2588 2.40089 11.1864 2.34673C11.2286 2.37882 11.2648 2.45104 11.295 2.49517C11.4157 2.66768 11.5263 2.85021 11.6208 3.03877C11.6449 3.08691 11.667 3.13305 11.6911 3.18119C11.7032 3.20526 11.7133 3.22933 11.7233 3.2534C11.7615 3.33966 11.6891 3.16915 11.7253 3.25541C11.7676 3.36373 11.8098 3.47205 11.844 3.58237C11.9123 3.797 11.9666 4.01765 12.0008 4.24231C12.0048 4.26639 12.0149 4.29848 12.0129 4.32456C12.0209 4.22226 12.0089 4.29447 12.0129 4.32656C12.0189 4.38273 12.025 4.43689 12.029 4.49305C12.031 4.60338 12.035 4.71571 12.037 4.82804C12.037 5.03866 12.222 5.23925 12.4392 5.22922C12.6564 5.21919 12.8414 5.0527 12.8414 4.82804C12.8373 3.84514 12.5377 2.85824 11.9626 2.05587C11.3815 1.24549 10.5811 0.631677 9.64408 0.286661C8.705 -0.0583556 7.64326 -0.0904502 6.68206 0.182354C5.75505 0.445128 4.90244 0.992741 4.28912 1.73493C3.64363 2.51924 3.25754 3.46603 3.17711 4.47701C3.09868 5.46391 3.34602 6.4789 3.8608 7.3254C4.35749 8.1418 5.10553 8.8198 5.98228 9.21296C6.92336 9.63621 7.96299 9.75656 8.97848 9.55597C9.92761 9.36741 10.8184 8.87195 11.4881 8.1759C12.1597 7.47785 12.6262 6.57318 12.775 5.61436C12.8152 5.35359 12.8414 5.09081 12.8414 4.82804C12.8414 4.61742 12.6564 4.41683 12.4392 4.42686C12.22 4.43689 12.037 4.60338 12.037 4.82804Z" fill="black"/>
<path d="M14.6269 18.2699C14.454 18.2699 14.283 18.2699 14.1101 18.2699C13.6536 18.2699 13.1952 18.2699 12.7387 18.2699C12.0852 18.2699 11.4316 18.2699 10.7781 18.2699C10.016 18.2699 9.25586 18.2699 8.49374 18.2699C7.71352 18.2699 6.93531 18.2699 6.15509 18.2699C5.44525 18.2699 4.73541 18.2699 4.02759 18.2699C3.47661 18.2699 2.92764 18.2699 2.37666 18.2699C2.07503 18.2699 1.7734 18.2699 1.46975 18.2699C1.44361 18.2699 1.41747 18.2699 1.39133 18.2699C1.38731 18.2699 1.38127 18.2699 1.37725 18.2699C1.35916 18.2699 1.33905 18.2699 1.32095 18.2679C1.32497 18.2679 1.26665 18.2659 1.26665 18.2639C1.26464 18.2598 1.37122 18.2839 1.2928 18.2659C1.25861 18.2578 1.22242 18.2498 1.18823 18.2398C1.17617 18.2358 1.16209 18.2278 1.15002 18.2278C1.09975 18.2197 1.21638 18.2659 1.17214 18.2378C1.146 18.2217 1.11785 18.2097 1.09171 18.1957C1.06557 18.1796 1.04144 18.1616 1.0153 18.1455C0.977089 18.1234 1.04747 18.1656 1.04546 18.1696C1.04345 18.1716 1.00122 18.1315 0.997198 18.1275C0.975078 18.1074 0.954969 18.0833 0.934861 18.0613C0.8866 18.0131 0.973067 18.1255 0.926817 18.0492C0.91073 18.0232 0.894643 17.9991 0.878556 17.971C0.870513 17.9549 0.862469 17.9389 0.854426 17.9249C0.824263 17.8667 0.86448 17.9489 0.86448 17.9489C0.846382 17.9509 0.824263 17.7865 0.814208 17.7684C0.84236 17.8206 0.820241 17.8366 0.81823 17.7945C0.81823 17.7764 0.816219 17.7584 0.814208 17.7383C0.814208 17.7283 0.814208 17.7183 0.814208 17.7082C0.814208 17.6862 0.814208 17.6661 0.814208 17.644C0.814208 16.9941 0.814208 16.3442 0.814208 15.6923C0.814208 15.602 0.814208 15.5138 0.814208 15.4235C0.814208 15.2209 0.846382 15.0223 0.850404 14.8217C0.850404 14.8217 0.838339 14.906 0.844371 14.8598C0.846382 14.8418 0.850404 14.8237 0.852415 14.8057C0.856436 14.7736 0.862469 14.7415 0.868502 14.7114C0.880567 14.6432 0.892632 14.577 0.908719 14.5108C0.936871 14.3824 0.971056 14.2561 1.00926 14.1317C1.04948 14.0033 1.09573 13.8789 1.146 13.7546C1.17214 13.6884 1.11182 13.8328 1.15203 13.7405C1.1641 13.7124 1.17818 13.6844 1.19024 13.6563C1.21839 13.5961 1.24856 13.5359 1.27872 13.4778C1.39937 13.2471 1.54013 13.0304 1.69497 12.8198C1.7372 12.7637 1.64671 12.878 1.70503 12.8078C1.72513 12.7837 1.74323 12.7596 1.76334 12.7356C1.80557 12.6854 1.8478 12.6353 1.89204 12.5871C1.98052 12.4888 2.07302 12.3966 2.16954 12.3063C2.26204 12.2201 2.36057 12.1378 2.4591 12.0576C2.5134 12.0134 2.39878 12.1017 2.47117 12.0475C2.4953 12.0295 2.52144 12.0114 2.54557 11.9934C2.60188 11.9533 2.66019 11.9131 2.72052 11.875C2.93568 11.7346 3.16291 11.6163 3.39617 11.51C3.46052 11.4799 3.32579 11.538 3.41025 11.5039C3.4384 11.4919 3.46856 11.4799 3.49671 11.4698C3.56307 11.4438 3.63144 11.4197 3.69981 11.3976C3.82449 11.3575 3.94916 11.3214 4.07786 11.2913C4.20655 11.2612 4.33726 11.2352 4.46797 11.2151C4.48204 11.2131 4.50818 11.2051 4.52226 11.2071C4.52427 11.2071 4.4378 11.2171 4.48405 11.2131C4.51623 11.2091 4.5484 11.2051 4.58058 11.2031C4.65498 11.195 4.72938 11.189 4.80378 11.185C4.95661 11.177 5.11145 11.179 5.26427 11.179C5.82933 11.179 6.39439 11.179 6.95944 11.179C7.72759 11.179 8.49374 11.179 9.26189 11.179C9.78271 11.179 10.3035 11.179 10.8243 11.179C10.8646 11.179 10.9028 11.179 10.943 11.179C11.1421 11.179 11.3391 11.2111 11.5362 11.2151C11.5362 11.2151 11.4517 11.2031 11.498 11.2091C11.5161 11.2111 11.5342 11.2151 11.5523 11.2171C11.5845 11.2211 11.6166 11.2271 11.6468 11.2331C11.7152 11.2452 11.7815 11.2572 11.8479 11.2733C11.9766 11.3013 12.1033 11.3354 12.2279 11.3736C12.3566 11.4137 12.4813 11.4598 12.606 11.51C12.6723 11.536 12.5276 11.4759 12.6201 11.516C12.6482 11.528 12.6764 11.5421 12.7045 11.5541C12.7648 11.5822 12.8252 11.6123 12.8835 11.6424C13.1147 11.7627 13.3319 11.9031 13.543 12.0576C13.5993 12.0997 13.4847 12.0094 13.5551 12.0676C13.5792 12.0877 13.6034 12.1057 13.6275 12.1258C13.6778 12.1679 13.728 12.21 13.7763 12.2542C13.8748 12.3424 13.9673 12.4347 14.0578 12.531C14.1443 12.6232 14.2267 12.7215 14.3072 12.8198C14.3514 12.874 14.2629 12.7596 14.3172 12.8319C14.3353 12.8559 14.3534 12.882 14.3715 12.9061C14.4117 12.9622 14.452 13.0204 14.4902 13.0806C14.6309 13.2952 14.7496 13.5219 14.8561 13.7546C14.8863 13.8188 14.828 13.6844 14.8622 13.7686C14.8742 13.7967 14.8863 13.8268 14.8964 13.8549C14.9225 13.9211 14.9466 13.9893 14.9688 14.0575C15.009 14.1818 15.0452 14.3062 15.0753 14.4346C15.1055 14.563 15.1316 14.6933 15.1517 14.8237C15.1538 14.8378 15.1618 14.8638 15.1598 14.8779C15.1598 14.8799 15.1497 14.7936 15.1538 14.8398C15.1578 14.8719 15.1618 14.904 15.1638 14.9361C15.1719 15.0103 15.1779 15.0845 15.1819 15.1587C15.194 15.3954 15.1879 15.6321 15.1879 15.8688C15.1879 16.4806 15.194 17.0924 15.1879 17.7042C15.1879 17.7162 15.1879 17.7283 15.1879 17.7403C15.1879 17.7544 15.1799 17.8627 15.1859 17.7965C15.192 17.7303 15.1759 17.8326 15.1719 17.8486C15.1698 17.8567 15.1457 17.9509 15.1397 17.9489C15.1336 17.9489 15.1799 17.8747 15.1538 17.9128C15.1477 17.9229 15.1417 17.9369 15.1357 17.9489C15.1196 17.979 15.1015 18.0091 15.0834 18.0392C15.0773 18.0492 15.0673 18.0593 15.0613 18.0713C15.0371 18.1154 15.1135 18.0171 15.0753 18.0512C15.0532 18.0713 15.0351 18.0974 15.013 18.1174C15.0029 18.1275 14.9929 18.1355 14.9848 18.1435C14.9808 18.1455 14.9788 18.1495 14.9748 18.1515C14.9486 18.1736 14.9486 18.1736 14.9748 18.1535C15.0009 18.1355 14.9848 18.1295 14.9748 18.1535C14.9607 18.1636 14.9466 18.1736 14.9305 18.1816C14.9044 18.1977 14.8783 18.2117 14.8501 18.2257C14.7717 18.2679 14.9044 18.2117 14.836 18.2318C14.8059 18.2398 14.7777 18.2498 14.7455 18.2578C14.7315 18.2619 14.7194 18.2639 14.7053 18.2659C14.6269 18.2839 14.7335 18.2598 14.7315 18.2639C14.7335 18.2719 14.639 18.2699 14.6269 18.2699C14.4158 18.2719 14.2147 18.4524 14.2247 18.6711C14.2348 18.8857 14.4017 19.0763 14.6269 19.0722C15.3528 19.0622 15.93 18.5066 15.9903 17.7905C16.0084 17.5698 15.9943 17.3431 15.9943 17.1225C15.9943 16.5127 16.0084 15.9029 15.9923 15.2931C15.9641 14.1317 15.5318 13.0204 14.7817 12.1358C14.0659 11.2893 13.0423 10.6855 11.9524 10.4729C11.4196 10.3686 10.8907 10.3726 10.3518 10.3726C9.66206 10.3726 8.97032 10.3726 8.28059 10.3726C7.53254 10.3726 6.78449 10.3726 6.03444 10.3726C5.65036 10.3726 5.26628 10.3626 4.88221 10.3766C3.72193 10.4187 2.61193 10.86 1.73318 11.6163C0.892632 12.3404 0.297413 13.3674 0.0963259 14.4586C-0.0343809 15.1627 0.00583655 15.8869 0.00583655 16.599C0.00583655 16.9279 0.00583655 17.2549 0.00583655 17.5839C0.00583655 17.6721 0.00583655 17.7584 0.0158909 17.8466C0.0581193 18.1856 0.206924 18.5126 0.47437 18.7352C0.743827 18.9599 1.06356 19.0742 1.41546 19.0742C1.50997 19.0742 1.60247 19.0742 1.69698 19.0742C2.11122 19.0742 2.52546 19.0742 2.9397 19.0742C3.57715 19.0742 4.2146 19.0742 4.85204 19.0742C5.61417 19.0742 6.37629 19.0742 7.13841 19.0742C7.93673 19.0742 8.73705 19.0742 9.53537 19.0742C10.2714 19.0742 11.0053 19.0742 11.7413 19.0742C12.3245 19.0742 12.9096 19.0742 13.4928 19.0742C13.8266 19.0742 14.1604 19.0742 14.4942 19.0742C14.5384 19.0742 14.5827 19.0742 14.6249 19.0742C14.836 19.0742 15.0371 18.8897 15.0271 18.6731C15.019 18.4524 14.8521 18.2699 14.6269 18.2699Z" fill="black"/>
</svg>
