<svg width="22" height="22" viewBox="0 0 22 22" fill="none" xmlns="http://www.w3.org/2000/svg">
<path d="M5.27966 12.6707C4.71951 12.6707 4.18251 12.4482 3.78639 12.0522C3.39044 11.6561 3.16797 11.1191 3.16797 10.559C3.16797 9.99881 3.39044 9.46179 3.78639 9.06569C4.1825 8.66974 4.71951 8.44727 5.27966 8.44727C5.8398 8.44727 6.37682 8.66974 6.77293 9.06569C7.16887 9.46179 7.39136 9.99881 7.39136 10.559C7.39072 11.1188 7.16809 11.6557 6.77228 12.0516C6.37634 12.4474 5.83948 12.67 5.27966 12.6707ZM5.27966 9.15115C4.90634 9.15115 4.54825 9.29948 4.28415 9.56345C4.02019 9.82756 3.87186 10.1857 3.87186 10.559C3.87186 10.9323 4.02019 11.2904 4.28415 11.5545C4.54826 11.8184 4.90636 11.9668 5.27966 11.9668C5.65297 11.9668 6.01108 11.8184 6.27518 11.5545C6.53914 11.2903 6.68745 10.9323 6.68745 10.559C6.68745 10.1857 6.53914 9.82755 6.27518 9.56345C6.01105 9.29948 5.65297 9.15115 5.27966 9.15115Z" fill="black"/>
<path d="M6.33511 15.8378H4.22342C4.02906 15.8378 3.87147 15.6802 3.87147 15.4858V14.1649C3.82072 14.1448 3.77185 14.1244 3.72393 14.1036L2.78983 15.0377C2.72385 15.1039 2.63445 15.1409 2.54111 15.1409C2.44778 15.1409 2.35822 15.1039 2.29224 15.0377L0.799889 13.5454C0.662407 13.4079 0.662567 13.1853 0.800049 13.0479L1.73415 12.1136C1.71309 12.0661 1.69298 12.0171 1.67287 11.9665L0.351952 11.9663C0.157593 11.9663 0 11.8087 0 11.6144V9.5027C0 9.30835 0.157593 9.15076 0.351952 9.15076H1.67287C1.69298 9.10001 1.71293 9.05113 1.73415 9.00322L0.800049 8.06912C0.662567 7.93179 0.662567 7.70901 0.800049 7.57153L2.2924 6.07918C2.43208 5.94704 2.65031 5.9472 2.78983 6.07935L3.72392 7.01343C3.77184 6.99269 3.82071 6.97227 3.87146 6.95216V5.63124C3.87146 5.43689 4.02905 5.2793 4.22341 5.2793H6.33511C6.42844 5.2793 6.51799 5.31638 6.58398 5.38237C6.64997 5.44836 6.68706 5.53792 6.68706 5.63124V6.95216C6.73781 6.97227 6.78667 6.99269 6.83459 7.01343L7.76868 6.07935C7.83467 6.0132 7.92408 5.97612 8.0174 5.97612C8.11073 5.97612 8.20029 6.0132 8.26628 6.07935L9.75863 7.57169C9.89611 7.70917 9.89595 7.93181 9.75847 8.06912L8.82438 9.00322C8.84543 9.05115 8.86554 9.10001 8.88565 9.15076H10.2066C10.2999 9.15076 10.3895 9.18784 10.4554 9.25383C10.5214 9.31982 10.5585 9.40938 10.5585 9.5027V11.6144C10.5585 11.7077 10.5214 11.7973 10.4554 11.8633C10.3895 11.9293 10.2999 11.9663 10.2066 11.9663H8.88565C8.86554 12.0171 8.84559 12.066 8.82438 12.1134L9.75847 13.0478C9.89595 13.1851 9.89595 13.4081 9.75847 13.5455L8.26613 15.0379C8.12645 15.17 7.90821 15.1699 7.76869 15.0377L6.83459 14.1036C6.78667 14.1244 6.73781 14.1448 6.68706 14.1649V15.4858C6.68706 15.5791 6.64998 15.6687 6.58398 15.7347C6.518 15.8007 6.42844 15.8378 6.33511 15.8378ZM4.57536 15.1339H5.98316V13.9162C5.98316 13.7633 6.08167 13.6281 6.22701 13.5811C6.40314 13.5267 6.57362 13.4554 6.73591 13.3682C6.87308 13.2929 7.04355 13.3173 7.15402 13.428L8.0174 14.2914L9.01167 13.2968L8.14877 12.4334C8.03831 12.323 8.0138 12.1527 8.08891 12.0157C8.17595 11.8532 8.24728 11.6827 8.3018 11.5068C8.34863 11.3611 8.48406 11.2624 8.63695 11.2624H9.85461V9.85464H8.63695C8.48406 9.85464 8.34863 9.75598 8.3018 9.61032C8.24728 9.43436 8.17595 9.26387 8.08891 9.10143C8.0138 8.96442 8.03831 8.79425 8.14877 8.68379L9.01167 7.8204L8.0174 6.82582L7.15402 7.68921C7.04357 7.79997 6.87309 7.82417 6.73591 7.74892C6.5736 7.66171 6.40313 7.59038 6.22701 7.53601C6.08167 7.48903 5.98316 7.35376 5.98316 7.20087V5.98322H4.57536V7.20087C4.57536 7.35376 4.47685 7.48904 4.33151 7.53601C4.15538 7.59038 3.98491 7.66171 3.82262 7.74892C3.68545 7.82417 3.51498 7.79982 3.4045 7.68906L2.54111 6.82584L1.54858 7.82042L2.41148 8.68379C2.52209 8.79425 2.54645 8.96442 2.47134 9.10143C2.38493 9.26405 2.31422 9.43436 2.26018 9.61032C2.21304 9.75723 2.07587 9.85622 1.92158 9.85464H0.703918V11.2625H1.92158C2.07446 11.2625 2.2099 11.3611 2.25671 11.5068C2.31077 11.6827 2.38147 11.8531 2.46788 12.0157C2.54283 12.1527 2.51848 12.3228 2.40802 12.4333L1.54858 13.2967L2.54111 14.2913L3.4045 13.4279C3.51495 13.3171 3.68543 13.2929 3.82262 13.3682C3.98492 13.4554 4.1554 13.5267 4.33151 13.5811C4.47685 13.6281 4.57536 13.7633 4.57536 13.9162V15.1339Z" fill="black"/>
<path d="M10.9107 4.57577C10.7164 4.57577 10.5588 4.73337 10.5588 4.92773V5.3873C9.65096 4.46029 8.51498 3.78877 7.26507 3.43996C6.01535 3.09115 4.69568 3.07764 3.43904 3.40053C2.18224 3.7234 1.03275 4.37154 0.105903 5.27969C-0.0295415 5.41639 -0.0301671 5.63651 0.104484 5.77383C0.239296 5.91131 0.459259 5.91492 0.598625 5.78232C1.44881 4.94926 2.5059 4.35818 3.6609 4.07019C4.81573 3.78219 6.02664 3.8078 7.16844 4.14403C8.31025 4.48043 9.3414 5.11549 10.1558 5.98358H9.50298C9.30862 5.98358 9.15102 6.14117 9.15102 6.33553C9.15102 6.52989 9.30862 6.68748 9.50298 6.68748H10.9108C11.0041 6.68748 11.0937 6.6504 11.1597 6.58441C11.2256 6.51842 11.2627 6.42886 11.2627 6.33553V4.92774C11.2627 4.83441 11.2256 4.74485 11.1597 4.67886C11.0937 4.61287 11.0041 4.57577 10.9107 4.57577Z" fill="black"/>
<path d="M10.7914 14.9515C10.7213 14.8896 10.6297 14.8581 10.5365 14.864C10.4432 14.8698 10.3561 14.9123 10.2944 14.9824C9.1699 16.2589 7.60089 17.0581 5.90731 17.2173C4.21373 17.3765 2.52325 16.8834 1.18073 15.8387H1.75974C1.9541 15.8387 2.11169 15.6811 2.11169 15.4868C2.11169 15.2924 1.9541 15.1348 1.75974 15.1348H0.351944C0.157593 15.1348 0 15.2924 0 15.4868V16.8946C0 17.0889 0.157593 17.2465 0.351944 17.2465C0.546303 17.2465 0.703896 17.0889 0.703896 16.8946V16.361C2.1871 17.5322 4.06281 18.0902 5.94492 17.9205C7.82706 17.7507 9.57265 16.866 10.8223 15.4484C10.8841 15.3783 10.9157 15.2867 10.9099 15.1936C10.904 15.1002 10.8614 15.0132 10.7914 14.9515Z" fill="black"/>
<path d="M21.0141 4.32646L16.7907 0.103069C16.7248 0.0370808 16.6352 0 16.5419 0H6.33534C6.14099 0 5.9834 0.157593 5.9834 0.351948V2.46364C5.9834 2.658 6.14099 2.81559 6.33534 2.81559C6.52969 2.81559 6.68729 2.658 6.68729 2.46364V0.703897H16.1899V4.57534C16.1899 4.66867 16.227 4.75823 16.293 4.82421C16.359 4.89021 16.4485 4.92729 16.5419 4.92729H20.4133V20.413H6.68729V18.6533C6.68729 18.4589 6.52969 18.3013 6.33534 18.3013C6.14099 18.3013 5.9834 18.4589 5.9834 18.6533V20.765C5.9834 20.8583 6.02048 20.9479 6.08646 21.0139C6.15245 21.0799 6.242 21.1169 6.33534 21.1169H20.7653C20.8586 21.1169 20.9482 21.0799 21.0141 21.0139C21.0801 20.9479 21.1172 20.8583 21.1172 20.765V4.57534C21.1172 4.48201 21.0801 4.39245 21.0141 4.32646ZM16.8937 1.20151L19.9156 4.22341H16.8937V1.20151Z" fill="black"/>
<path d="M18.6538 10.9109H12.3187C12.1244 10.9109 11.9668 10.7533 11.9668 10.559C11.9668 10.3646 12.1244 10.207 12.3187 10.207H18.6538C18.8482 10.207 19.0058 10.3646 19.0058 10.559C19.0058 10.7533 18.8482 10.9109 18.6538 10.9109Z" fill="black"/>
<path d="M18.6538 8.79959H12.3187C12.1244 8.79959 11.9668 8.642 11.9668 8.44765C11.9668 8.2533 12.1244 8.0957 12.3187 8.0957H18.6538C18.8482 8.0957 19.0058 8.2533 19.0058 8.44765C19.0058 8.642 18.8482 8.79959 18.6538 8.79959Z" fill="black"/>
<path d="M18.6538 13.0222H12.3187C12.1244 13.0222 11.9668 12.8647 11.9668 12.6703C11.9668 12.476 12.1244 12.3184 12.3187 12.3184H18.6538C18.8482 12.3184 19.0058 12.476 19.0058 12.6703C19.0058 12.8647 18.8482 13.0222 18.6538 13.0222Z" fill="black"/>
<path d="M18.6538 6.68631H12.3187C12.1244 6.68631 11.9668 6.52872 11.9668 6.33437C11.9668 6.14001 12.1244 5.98242 12.3187 5.98242H18.6538C18.8482 5.98242 19.0058 6.14001 19.0058 6.33437C19.0058 6.52872 18.8482 6.68631 18.6538 6.68631Z" fill="black"/>
<path d="M18.6538 15.1336H12.3187C12.1244 15.1336 11.9668 14.976 11.9668 14.7816C11.9668 14.5873 12.1244 14.4297 12.3187 14.4297H18.6538C18.8482 14.4297 19.0058 14.5873 19.0058 14.7816C19.0058 14.976 18.8482 15.1336 18.6538 15.1336Z" fill="black"/>
<path d="M18.653 17.2449H11.2621C11.0677 17.2449 10.9102 17.0873 10.9102 16.8929C10.9102 16.6986 11.0677 16.541 11.2621 16.541H18.653C18.8474 16.541 19.005 16.6986 19.005 16.8929C19.005 17.0873 18.8474 17.2449 18.653 17.2449Z" fill="black"/>
</svg>
