<svg xmlns="http://www.w3.org/2000/svg" xmlns:xlink="http://www.w3.org/1999/xlink" xml:space="preserve" version="1.1" style="shape-rendering:geometricPrecision;text-rendering:geometricPrecision;image-rendering:optimizeQuality;" viewBox="0 0 8407 10243.75" x="0px" y="0px" fill-rule="evenodd" clip-rule="evenodd"><defs><style type="text/css">
   
    .fil0 {fill:black;fill-rule:nonzero}
   
  </style></defs><g><g><path class="fil0" d="M1242 5559l0 1394 5922 0 0 -1394c0,-342 280,-621 622,-621 341,0 621,279 621,621l0 2015c0,342 -280,621 -621,621l-7165 0c-341,0 -619,-278 -621,-621l0 -2015c0,-342 279,-621 621,-621 342,0 621,279 621,621z"/><path class="fil0" d="M3582 5671l0 -3380 -880 911c-237,246 -632,253 -878,15 -246,-237 -253,-632 -15,-878l2169 -2245c121,-125 328,-125 449,0l2170 2245c241,250 228,656 -29,890 -243,223 -633,209 -865,-27l-878 -909 0 3378c0,816 -1243,816 -1243,0z"/></g></g><text x="0" y="8210" fill="#000000" font-size="5px" font-weight="bold" font-family="'Helvetica Neue', Helvetica, Arial-Unicode, Arial, Sans-serif">Created by joni</text><text x="0" y="8215" fill="#000000" font-size="5px" font-weight="bold" font-family="'Helvetica Neue', Helvetica, Arial-Unicode, Arial, Sans-serif">from the Noun Project</text></svg>