<svg width="48" height="52" viewBox="0 0 48 52" fill="none" xmlns="http://www.w3.org/2000/svg">
<path d="M4.71509 4.28613H39.0006V21.4289H43.2862V0H0.428955V51.4289H24.0006V47.1428H4.71509V4.28613Z" fill="#0F1F3C"/>
<path d="M35.7855 23.9287L24 29.8221V34.9924C24 41.4547 27.651 47.3621 33.4307 50.252L35.7855 51.4291L38.1404 50.252C43.9201 47.3621 47.5711 41.4547 47.5711 34.9924V29.8221L35.7855 23.9287ZM43.2855 34.9918C43.2855 39.8621 40.5797 44.2402 36.2238 46.4182L35.7855 46.6373L35.3473 46.4182C30.9914 44.2402 28.2855 39.8615 28.2855 34.9918V32.4705L35.7855 28.7205L43.2855 32.4705V34.9918Z" fill="#0F1F3C"/>
<path d="M32.5471 35.7467L30.4184 38.1555L35.8822 42.9854L42.5578 35.3043L40.1326 33.1949L35.5834 38.4297L32.5471 35.7467ZM9 10.7148H34.7145V15.0004H9V10.7148ZM9 21.4293H26.1428V25.7148H9V21.4293ZM9 32.1432H17.5717V36.4287H9V32.1432Z" fill="#0F1F3C"/>
</svg>
