<svg width="23" height="23" viewBox="0 0 23 23" fill="none" xmlns="http://www.w3.org/2000/svg">
<path d="M11.5 0C5.15156 0 0 5.15157 0 11.5C0 17.8484 5.15156 23 11.5 23C17.8484 23 23 17.8484 23 11.5C23 5.15157 17.8484 0 11.5 0ZM11.5 0.479167C17.5895 0.479167 22.5208 5.41056 22.5208 11.5C22.5208 17.5895 17.5895 22.5208 11.5 22.5208C5.41052 22.5208 0.479167 17.5895 0.479167 11.5C0.479167 5.41056 5.41052 0.479167 11.5 0.479167ZM7.66667 3.83333C7.40535 3.83333 7.1875 4.05121 7.1875 4.3125V5.27083C7.1875 5.28521 7.19458 5.29764 7.19592 5.31201C6.91418 5.40957 6.70833 5.67659 6.70833 5.98958C6.70833 6.38365 7.03304 6.70833 7.42708 6.70833V9.43079C6.4446 9.87411 5.75 10.826 5.75 11.9558V12.4218V13.7732V17.7292H4.55208C4.52034 17.7287 4.48882 17.7346 4.45935 17.7464C4.42989 17.7583 4.40308 17.7758 4.38047 17.7981C4.35786 17.8204 4.33991 17.847 4.32765 17.8763C4.3154 17.9056 4.30909 17.937 4.30909 17.9688C4.30909 18.0005 4.3154 18.0319 4.32765 18.0612C4.33991 18.0905 4.35786 18.1171 4.38047 18.1394C4.40308 18.1617 4.42989 18.1792 4.45935 18.1911C4.48882 18.2029 4.52034 18.2088 4.55208 18.2083H16.6492C16.6809 18.2088 16.7124 18.2029 16.7419 18.1911C16.7714 18.1792 16.7982 18.1617 16.8208 18.1394C16.8434 18.1171 16.8613 18.0905 16.8736 18.0612C16.8859 18.0319 16.8922 18.0005 16.8922 17.9688C16.8922 17.937 16.8859 17.9056 16.8736 17.8763C16.8613 17.847 16.8434 17.8204 16.8208 17.7981C16.7982 17.7758 16.7714 17.7583 16.7419 17.7464C16.7124 17.7346 16.6809 17.7287 16.6492 17.7292H16.5359C16.7706 17.7407 16.7706 17.3825 16.5359 17.3941H16.5312C16.1827 17.3941 15.7568 17.2461 15.5729 17.0581V14.8542C15.5843 14.3903 15.8857 14.0413 16.2467 13.8743C16.7186 13.6782 17.0761 13.4162 17.3295 13.105C17.7199 12.6257 17.8554 12.0465 17.8415 11.4813C17.8136 10.351 17.2317 9.25333 16.7933 8.71672C16.7734 8.69222 16.7489 8.67189 16.7212 8.65689C16.6934 8.64189 16.663 8.63251 16.6316 8.62929C16.6002 8.62607 16.5685 8.62908 16.5383 8.63813C16.5081 8.64718 16.4799 8.66211 16.4555 8.68205C16.4311 8.702 16.4108 8.72657 16.3959 8.75436C16.3809 8.78214 16.3717 8.81261 16.3685 8.84399C16.3654 8.87538 16.3685 8.90708 16.3776 8.93727C16.3867 8.96746 16.4017 8.99555 16.4218 9.01994C16.6075 9.24726 16.8444 9.64157 17.0347 10.1018C16.765 10.0587 16.5122 10.0558 16.2758 10.0831C15.9107 10.1253 15.5807 10.2268 15.2716 10.3133C14.7043 10.4722 14.2073 10.5876 13.5149 10.304C13.6989 9.75493 13.9571 9.27169 14.1438 9.0059C14.1697 8.9701 14.1852 8.92783 14.1886 8.88378C14.1919 8.83973 14.183 8.79561 14.1629 8.75629C14.1428 8.71697 14.1121 8.68399 14.0744 8.66098C14.0367 8.63798 13.9934 8.62585 13.9492 8.62594C13.9102 8.62604 13.8719 8.63564 13.8375 8.6539C13.8031 8.67217 13.7736 8.69855 13.7517 8.73075C13.3809 9.25875 12.8239 10.3557 12.8112 11.4841C12.8048 12.0482 12.9443 12.6262 13.3362 13.105C13.5906 13.4159 13.9479 13.6781 14.4199 13.8743C14.781 14.0413 15.0824 14.3902 15.0937 14.8542V17.0581C14.8753 17.2398 14.4348 17.393 14.1392 17.3941H14.1354C13.9008 17.3826 13.9008 17.7408 14.1354 17.7292H11.5V13.7732V12.4218V11.9558C11.5 10.8258 10.8058 9.87397 9.82292 9.43079V6.70833C10.217 6.70833 10.5417 6.38365 10.5417 5.98958C10.5417 5.67659 10.3358 5.40957 10.0541 5.31201C10.0555 5.29764 10.0625 5.28569 10.0625 5.27083V4.3125C10.0625 4.05121 9.84465 3.83333 9.58333 3.83333H7.66667ZM7.66667 4.3125H9.58333V5.27083H7.66667V4.3125ZM7.42708 5.75H9.82292C9.9598 5.75 10.0625 5.85273 10.0625 5.98958C10.0625 6.12648 9.9598 6.22917 9.82292 6.22917H7.42708C7.2902 6.22917 7.1875 6.12648 7.1875 5.98958C7.1875 5.85273 7.2902 5.75 7.42708 5.75ZM7.90625 6.70833H9.34375V9.56836C9.34369 9.61716 9.35853 9.66482 9.38629 9.70496C9.41406 9.7451 9.45342 9.77581 9.4991 9.79297C10.3938 10.1315 11.0208 10.9667 11.0208 11.9558V12.4218V13.7732V14.8542H6.22917V13.7732V12.9375H9.58333C9.90733 12.9423 9.90733 12.4537 9.58333 12.4583H6.22917V12.4218V11.9558C6.22917 10.9667 6.85716 10.1315 7.75183 9.79297C7.79734 9.77566 7.8365 9.74489 7.86409 9.70476C7.89168 9.66463 7.90638 9.61705 7.90625 9.56836V6.70833ZM9.14534 10.2628C9.08957 10.2645 9.03617 10.2857 8.99434 10.3227C8.95252 10.3596 8.92489 10.41 8.91624 10.4651C8.90759 10.5202 8.91845 10.5767 8.94695 10.6246C8.97545 10.6726 9.0198 10.7091 9.07235 10.7279C9.5086 10.8903 9.83908 11.2534 9.95955 11.7031C9.96663 11.7346 9.98001 11.7644 9.99889 11.7906C10.0178 11.8169 10.0418 11.839 10.0694 11.8557C10.0971 11.8724 10.1278 11.8834 10.1598 11.8879C10.1919 11.8924 10.2244 11.8904 10.2556 11.882C10.2869 11.8736 10.316 11.859 10.3415 11.839C10.3669 11.819 10.388 11.7941 10.4035 11.7658C10.419 11.7374 10.4287 11.7062 10.4318 11.6741C10.435 11.6419 10.4316 11.6094 10.4219 11.5786C10.2614 10.9796 9.82101 10.4951 9.23987 10.2787C9.20975 10.2671 9.1776 10.2617 9.14534 10.2628ZM16.5575 10.5379C16.7625 10.5331 16.9806 10.5624 17.2172 10.6296C17.2987 10.9141 17.3562 11.2072 17.3632 11.4925C17.3751 11.9749 17.2643 12.4257 16.958 12.8018C16.6585 13.1697 16.1496 13.4753 15.3333 13.645C14.5176 13.4753 14.0082 13.1691 13.7068 12.8009C13.3985 12.4241 13.2849 11.9722 13.2903 11.4888C13.2932 11.2504 13.3276 11.006 13.382 10.7663C14.1756 11.0694 14.829 10.9337 15.4007 10.7738C15.7978 10.6626 16.1574 10.5463 16.5575 10.5379ZM16.6192 11.3119V11.3128C16.6111 11.3124 16.603 11.3124 16.5949 11.3128C16.5354 11.317 16.4797 11.3432 16.4385 11.3863C16.3973 11.4294 16.3736 11.4863 16.3722 11.5459C16.3536 11.9791 16.1697 12.3358 15.5505 12.5192C15.5198 12.5276 15.4911 12.5421 15.466 12.5618C15.441 12.5814 15.4201 12.6059 15.4046 12.6337C15.3892 12.6616 15.3794 12.6922 15.3759 12.7238C15.3724 12.7555 15.3752 12.7875 15.3842 12.818C15.3933 12.8486 15.4083 12.877 15.4284 12.9017C15.4485 12.9263 15.4734 12.9468 15.5015 12.9617C15.5296 12.9767 15.5604 12.9859 15.5921 12.9888C15.6238 12.9917 15.6558 12.9883 15.6862 12.9787C16.4642 12.7483 16.826 12.1561 16.8513 11.5655C16.8532 11.5335 16.8487 11.5015 16.8379 11.4712C16.8272 11.441 16.8105 11.4133 16.7889 11.3896C16.7672 11.366 16.7411 11.3469 16.7119 11.3336C16.6828 11.3202 16.6513 11.3128 16.6192 11.3119ZM6.22917 15.3333H11.0208V17.7292H6.22917V17.25H7.66667C7.69841 17.2504 7.72993 17.2446 7.7594 17.2327C7.78886 17.2209 7.81567 17.2033 7.83828 17.181C7.86089 17.1587 7.87884 17.1322 7.8911 17.1029C7.90335 17.0736 7.90966 17.0422 7.90966 17.0104C7.90966 16.9787 7.90335 16.9472 7.8911 16.9179C7.87884 16.8887 7.86089 16.8621 7.83828 16.8398C7.81567 16.8175 7.78886 16.7999 7.7594 16.7881C7.72993 16.7762 7.69841 16.7704 7.66667 16.7708H6.22917V15.3333ZM8.60067 16.7708C8.56917 16.7724 8.5383 16.7801 8.5098 16.7936C8.48131 16.8071 8.45575 16.8261 8.4346 16.8495C8.41345 16.8729 8.39711 16.9002 8.38653 16.9299C8.37594 16.9596 8.37132 16.9911 8.37292 17.0226C8.37452 17.0541 8.38231 17.085 8.39585 17.1134C8.40938 17.1419 8.42841 17.1674 8.45182 17.1886C8.47523 17.2097 8.50258 17.226 8.53229 17.2365C8.56201 17.2471 8.59351 17.2516 8.625 17.25H9.10417C9.13591 17.2504 9.16743 17.2446 9.19689 17.2327C9.22636 17.2209 9.25317 17.2033 9.27578 17.181C9.29839 17.1587 9.31634 17.1322 9.3286 17.1029C9.34085 17.0736 9.34716 17.0422 9.34716 17.0104C9.34716 16.9787 9.34085 16.9472 9.3286 16.9179C9.31634 16.8887 9.29839 16.8621 9.27578 16.8398C9.25317 16.8175 9.22636 16.7999 9.19689 16.7881C9.16743 16.7762 9.13591 16.7704 9.10417 16.7708H8.625C8.61689 16.7704 8.60877 16.7704 8.60067 16.7708ZM17.7086 17.7292C17.6451 17.7325 17.5855 17.7609 17.5429 17.808C17.5004 17.8552 17.4783 17.9174 17.4815 17.9809C17.4847 18.0444 17.513 18.104 17.5601 18.1466C17.6073 18.1893 17.6694 18.2115 17.7329 18.2083H18.4479C18.4797 18.2088 18.5112 18.2029 18.5406 18.1911C18.5701 18.1792 18.5969 18.1617 18.6195 18.1394C18.6421 18.1171 18.6601 18.0905 18.6723 18.0612C18.6846 18.0319 18.6909 18.0005 18.6909 17.9688C18.6909 17.937 18.6846 17.9056 18.6723 17.8763C18.6601 17.847 18.6421 17.8204 18.6195 17.7981C18.5969 17.7758 18.5701 17.7583 18.5406 17.7464C18.5112 17.7346 18.4797 17.7287 18.4479 17.7292H17.7329C17.7248 17.7288 17.7167 17.7288 17.7086 17.7292Z" fill="black"/>
</svg>
