<svg xmlns="http://www.w3.org/2000/svg" width="23.204" height="17.2" viewBox="0 0 23.204 17.2" fill="#000">
  <g id="users-svgrepo-com_2_" data-name="users-svgrepo-com (2)" transform="translate(-0.15 -3.15)">
    <path id="Path_177" data-name="Path 177" d="M7.493,11.987A4.118,4.118,0,1,0,3.375,7.868,4.118,4.118,0,0,0,7.493,11.987Z" transform="translate(-0.004)" fill="none" stroke="#0e0e0e" stroke-linecap="round" stroke-linejoin="round" stroke-width="1.2"/>
    <path id="Path_178" data-name="Path 178" d="M.75,20.239A6.739,6.739,0,0,1,14.228,20.2" transform="translate(0 -0.489)" fill="none" stroke="#0e0e0e" stroke-linecap="round" stroke-linejoin="round" stroke-width="1.2"/>
    <path id="Path_179" data-name="Path 179" d="M17.721,13.489a3.37,3.37,0,1,0-3.37-3.37A3.37,3.37,0,0,0,17.721,13.489Z" transform="translate(-0.486 -0.151)" fill="none" stroke="#0e0e0e" stroke-linecap="round" stroke-linejoin="round" stroke-width="1.2"/>
    <path id="Path_180" data-name="Path 180" d="M15.814,15.067a5.517,5.517,0,0,1,7.425,5.143" transform="translate(-0.488 -0.491)" fill="none" stroke="#0e0e0e" stroke-linecap="round" stroke-linejoin="round" stroke-width="1.2"/>
  </g>
</svg>
