<svg width="22" height="22" viewBox="0 0 22 22" fill="none" xmlns="http://www.w3.org/2000/svg">
<path fill-rule="evenodd" clip-rule="evenodd" d="M7.26158 3.10917C7.39891 2.92995 7.54805 2.75829 7.70848 2.59527C7.75024 2.55289 7.79276 2.51113 7.83609 2.46999L7.59629 2.05487C7.41661 1.74359 7.52325 1.3457 7.83454 1.16605L8.96143 0.515459C9.27254 0.335782 9.67061 0.442416 9.85025 0.75354L10.0899 1.16866C10.1472 1.15186 10.2047 1.13599 10.2621 1.12089C10.4818 1.06388 10.703 1.02088 10.9251 0.991605C11.1496 0.96171 11.3773 0.945683 11.6068 0.94399C11.6664 0.943528 11.7259 0.94399 11.7857 0.945531L11.9098 0.482482C12.0028 0.135302 12.3595 -0.0707073 12.7066 0.0223522L13.9635 0.359209C14.3106 0.45213 14.5166 0.808845 14.4235 1.15603L14.2994 1.61908C14.352 1.64759 14.4038 1.67703 14.4551 1.70707C14.6506 1.82203 14.8377 1.94808 15.0154 2.0843C15.1952 2.22206 15.3676 2.37169 15.5311 2.53272C15.5735 2.57448 15.6153 2.61701 15.6564 2.66031L16.0717 2.42053C16.3828 2.24086 16.7807 2.34749 16.9604 2.65877L17.611 3.78566C17.7906 4.09678 17.684 4.49483 17.3728 4.67448L16.9577 4.9141C16.9745 4.97142 16.9906 5.0289 17.0055 5.08638C17.063 5.30782 17.1063 5.53109 17.1356 5.75516C17.165 5.97782 17.1809 6.20357 17.1826 6.43119C17.183 6.49067 17.1824 6.55015 17.1809 6.60994L17.6441 6.73398C17.9911 6.82706 18.1972 7.18378 18.104 7.53081L17.7672 8.78777C17.6743 9.13479 17.3176 9.34084 16.9703 9.2479L16.5073 9.1237C16.4788 9.17624 16.4494 9.22802 16.4193 9.27933C16.3034 9.47658 16.1761 9.66503 16.0385 9.84408C15.9019 10.0224 15.7533 10.1933 15.5937 10.3554C15.5519 10.3978 15.5094 10.4395 15.4661 10.4807L15.7059 10.8958C15.8855 11.2071 15.7789 11.6049 15.4676 11.7846L14.3407 12.4353C14.0296 12.6149 13.6317 12.5082 13.4521 12.1971L13.2123 11.782C13.155 11.7988 13.0977 11.8148 13.04 11.8298C12.8178 11.8874 12.5939 11.9308 12.3692 11.9601C12.1472 11.9892 11.9222 12.0051 11.6954 12.0068C11.6359 12.0071 11.5763 12.0067 11.5165 12.0051L11.3924 12.4683C11.2995 12.8154 10.9426 13.0214 10.5956 12.9283L9.33862 12.5916C8.99164 12.4985 8.78557 12.1418 8.87867 11.7946L9.0027 11.3316C8.95033 11.3031 8.89841 11.2736 8.8471 11.2436C8.64908 11.1272 8.45998 10.9995 8.28048 10.8614C8.1028 10.725 7.93268 10.5771 7.77106 10.4179C7.72864 10.3762 7.68691 10.3336 7.64576 10.2903L7.23064 10.5301C6.91935 10.7098 6.52147 10.6032 6.34182 10.2919L5.69121 9.16498C5.51152 8.85386 5.61818 8.45581 5.92932 8.27632L6.34459 8.03655C6.32763 7.97923 6.3116 7.9219 6.29665 7.86427C6.23966 7.64437 6.1965 7.42264 6.16721 7.20043C6.13749 6.97606 6.12145 6.74878 6.11976 6.51962C6.11929 6.46014 6.11976 6.4005 6.12129 6.34071L5.65825 6.21667C5.31107 6.12374 5.10508 5.76687 5.19813 5.41984L5.53497 4.16289C5.6279 3.81586 5.98461 3.60981 6.3318 3.70291L6.79485 3.82696C6.82339 3.77457 6.85278 3.72264 6.88285 3.67132C6.99815 3.475 7.12474 3.28745 7.26158 3.10917ZM12.5383 0.650721L13.7952 0.987577L13.5385 1.94559L13.9884 2.19045C14.0348 2.21572 14.0804 2.24145 14.1257 2.26811C14.2962 2.36828 14.4609 2.47923 14.6192 2.60035C14.7796 2.72332 14.9315 2.85569 15.0744 2.99637C15.1117 3.0332 15.1488 3.07049 15.1852 3.10871L15.5382 3.47993L16.3971 2.98406L17.0477 4.11095L16.1888 4.60682L16.3338 5.09824C16.3487 5.14878 16.3628 5.19933 16.3759 5.25002C16.4263 5.44326 16.4645 5.64081 16.4908 5.84053C16.5167 6.03885 16.5302 6.23762 16.5317 6.43581C16.5319 6.4882 16.532 6.54106 16.5306 6.5936L16.5178 7.1058L17.4758 7.36237L17.139 8.61933L16.1811 8.3626L15.9361 8.81256C15.911 8.85894 15.8851 8.90455 15.8584 8.94986C15.7572 9.12214 15.6448 9.28872 15.5222 9.44853C15.4003 9.6071 15.2693 9.75719 15.1301 9.89833C15.0933 9.93562 15.056 9.97291 15.0178 10.0093L14.6466 10.3623L15.1424 11.2212L14.0155 11.8718L13.5197 11.0129L13.0283 11.1579C12.9779 11.1729 12.9272 11.1869 12.8765 11.2C12.6826 11.2505 12.4845 11.2889 12.284 11.3151C12.0864 11.341 11.8883 11.3544 11.6907 11.3558C11.6383 11.3562 11.5856 11.3561 11.5329 11.3547L11.0209 11.3419L10.7641 12.2999L9.5072 11.9631L9.76392 11.0052L9.31396 10.7602C9.26774 10.7351 9.22197 10.7092 9.17684 10.6825C9.00378 10.581 8.83643 10.468 8.67601 10.3447C8.51822 10.2233 8.36873 10.0928 8.22819 9.95426C8.19075 9.91743 8.15361 9.88014 8.11739 9.84192L7.76421 9.4707L6.90541 9.96657L6.25466 8.83968L7.11357 8.34381L6.96856 7.8524C6.95379 7.80201 6.9396 7.75131 6.92651 7.70061C6.87659 7.50876 6.83852 7.3129 6.81217 7.11473C6.78597 6.91486 6.77209 6.71452 6.77071 6.51483C6.77028 6.46244 6.77039 6.40973 6.77181 6.35703L6.78458 5.84499L5.82658 5.58826L6.16345 4.33131L7.12145 4.58803L7.3663 4.13808C7.39157 4.09185 7.41746 4.04609 7.44398 4.00078C7.54441 3.82989 7.65586 3.66454 7.77745 3.50581C7.90012 3.34586 8.03199 3.19454 8.17238 3.05231C8.2092 3.01502 8.24637 2.97773 8.28459 2.94136L8.65579 2.58833L8.15991 1.72941L9.28681 1.07882L9.78268 1.93774L10.2741 1.79273C10.3247 1.77794 10.3752 1.76392 10.4259 1.75066C10.6171 1.70089 10.8124 1.66283 11.0099 1.63663C11.2103 1.61013 11.4114 1.59642 11.6118 1.59487C11.6642 1.59441 11.7168 1.59457 11.7695 1.59595L12.2817 1.60874L12.5383 0.650721Z" fill="black"/>
<path fill-rule="evenodd" clip-rule="evenodd" d="M12.1679 4.54699C11.1025 4.26146 10.0073 4.89372 9.7218 5.95929C9.43622 7.02473 10.0685 8.12001 11.1341 8.40543C12.1996 8.69097 13.2949 8.05871 13.5802 6.99312C13.8658 5.92769 13.2335 4.83253 12.1679 4.54699ZM9.13717 5.80257C9.50918 4.41433 10.9363 3.59036 12.3247 3.96237C13.7131 4.33436 14.5369 5.76142 14.1649 7.14985C13.7929 8.53825 12.3659 9.36206 10.9774 8.99006C9.58913 8.61807 8.76517 7.191 9.13717 5.80257Z" fill="black"/>
<path fill-rule="evenodd" clip-rule="evenodd" d="M3.32881 12.9824H0.907794C0.406523 12.9824 0 13.3889 0 13.8904V20.8508C0 21.3522 0.406523 21.7586 0.907794 21.7586H3.32881C3.77044 21.7586 4.13841 21.4433 4.21996 21.0253L10.6339 21.9808C11.0369 22.0407 11.4485 21.9635 11.8023 21.7613L20.7844 16.6287C21.5555 16.1881 21.7658 15.1712 21.2329 14.4607C20.8184 13.9079 20.0758 13.7165 19.4457 14.0001L14.2503 16.3381C14.0979 16.4066 14.0299 16.5858 14.0985 16.7382C14.1671 16.8906 14.3463 16.9586 14.4987 16.89L19.6941 14.5521C20.066 14.3847 20.504 14.4976 20.7487 14.8239C21.0633 15.2432 20.9391 15.8432 20.484 16.1032L11.5019 21.2359C11.266 21.3706 10.9917 21.4221 10.723 21.3821L4.23682 20.4161V14.193H6.93025C7.02672 14.193 7.12272 14.2046 7.21642 14.2275L11.8749 15.3607C12.1874 15.4366 12.4075 15.7166 12.4075 16.0383C12.4075 16.4313 12.0826 16.7468 11.6897 16.7352L7.57441 16.6142C7.40737 16.6093 7.26792 16.7407 7.26299 16.9078C7.25805 17.0749 7.38949 17.2143 7.55653 17.2193L11.6718 17.3402C12.4059 17.3618 13.0128 16.7726 13.0128 16.0383C13.0128 15.4374 12.6018 14.9146 12.0181 14.7725L7.35957 13.6394C7.21903 13.6052 7.07495 13.5879 6.93041 13.5879H4.18517C4.06067 13.2352 3.72404 12.9824 3.32881 12.9824ZM0.605307 13.8904C0.605307 13.7232 0.740762 13.5877 0.907794 13.5877H3.32881C3.49601 13.5877 3.63145 13.7232 3.63145 13.8904V20.8508C3.63145 21.0178 3.49601 21.1534 3.32881 21.1534H0.907794C0.740762 21.1534 0.605307 21.0178 0.605307 20.8508V13.8904Z" fill="black"/>
</svg>
