<svg width="14" height="19" viewBox="0 0 14 19" fill="none" xmlns="http://www.w3.org/2000/svg">
<path d="M7 5.48633C6.07174 5.48633 5.1815 5.85508 4.52513 6.51145C3.86875 7.16783 3.5 8.05807 3.5 8.98633C3.5 9.91459 3.86875 10.8048 4.52513 11.4612C5.1815 12.1176 6.07174 12.4863 7 12.4863C7.92826 12.4863 8.8185 12.1176 9.47487 11.4612C10.1313 10.8048 10.5 9.91459 10.5 8.98633C10.5 8.05807 10.1313 7.16783 9.47487 6.51145C8.8185 5.85508 7.92826 5.48633 7 5.48633ZM4.66667 8.98633C4.66667 8.36749 4.9125 7.774 5.35008 7.33641C5.78767 6.89883 6.38116 6.65299 7 6.65299C7.61884 6.65299 8.21233 6.89883 8.64992 7.33641C9.0875 7.774 9.33333 8.36749 9.33333 8.98633C9.33333 9.60517 9.0875 10.1987 8.64992 10.6362C8.21233 11.0738 7.61884 11.3197 7 11.3197C6.38116 11.3197 5.78767 11.0738 5.35008 10.6362C4.9125 10.1987 4.66667 9.60517 4.66667 8.98633ZM4.08333 13.653C3.92862 13.653 3.78025 13.7145 3.67085 13.8238C3.56146 13.9332 3.5 14.0816 3.5 14.2363C3.5 14.391 3.56146 14.5394 3.67085 14.6488C3.78025 14.7582 3.92862 14.8197 4.08333 14.8197H9.91667C10.0714 14.8197 10.2197 14.7582 10.3291 14.6488C10.4385 14.5394 10.5 14.391 10.5 14.2363C10.5 14.0816 10.4385 13.9332 10.3291 13.8238C10.2197 13.7145 10.0714 13.653 9.91667 13.653H4.08333Z" fill="black"/>
<path d="M1.43733 1.72566C1.03401 1.7989 0.669187 2.0114 0.406509 2.3261C0.14383 2.64081 -3.70244e-05 3.03773 7.14718e-09 3.44766V16.2227C7.14718e-09 16.7418 0.222833 17.2003 0.571667 17.5177C0.999833 18.01 1.631 18.3203 2.33333 18.3203H11.6667C12.2855 18.3203 12.879 18.0745 13.3166 17.6369C13.7542 17.1993 14 16.6058 14 15.987V4.32032C14 3.91075 13.8922 3.50839 13.6874 3.15369C13.4826 2.79899 13.188 2.50445 12.8333 2.29966V1.75132C12.8335 1.49492 12.7774 1.2416 12.6688 1.0093C12.5603 0.776991 12.4021 0.571371 12.2053 0.406984C12.0085 0.242596 11.778 0.123457 11.5301 0.0579948C11.2822 -0.00746731 11.0229 -0.017653 10.7707 0.0281582L1.43733 1.72449V1.72566ZM2.33333 3.15366H11.6667C11.9761 3.15366 12.2728 3.27657 12.4916 3.49537C12.7104 3.71416 12.8333 4.01091 12.8333 4.32032V15.987C12.8333 16.2964 12.7104 16.5932 12.4916 16.8119C12.2728 17.0307 11.9761 17.1537 11.6667 17.1537H2.33333C2.02391 17.1537 1.72717 17.0307 1.50838 16.8119C1.28958 16.5932 1.16667 16.2964 1.16667 15.987V4.32032C1.16667 4.01091 1.28958 3.71416 1.50838 3.49537C1.72717 3.27657 2.02391 3.15366 2.33333 3.15366Z" fill="black"/>
</svg>
