<?xml version="1.0" encoding="utf-8"?><!-- Uploaded to: SVG Repo, www.svgrepo.com, Generator: SVG Repo Mixer Tools -->
<svg fill="#000000" width="800px" height="800px" viewBox="0 0 1024 1024" xmlns="http://www.w3.org/2000/svg"><path d="M409.275 757.621v-491.52h-286.72v491.52h286.72zm0 40.96h-286.72c-22.626 0-40.96-18.334-40.96-40.96v-491.52c0-22.626 18.334-40.96 40.96-40.96h286.72c22.626 0 40.96 18.334 40.96 40.96v491.52c0 22.626-18.334 40.96-40.96 40.96zm344.32-392.677V267.152H614.843v138.752h138.752zm0 40.96H614.843c-22.626 0-40.96-18.334-40.96-40.96V267.152c0-22.626 18.334-40.96 40.96-40.96h138.752c22.626 0 40.96 18.334 40.96 40.96v138.752c0 22.626-18.334 40.96-40.96 40.96zm147.456 312.32V620.432H762.299v138.752h138.752zm0 40.96H762.299c-22.626 0-40.96-18.334-40.96-40.96V620.432c0-22.626 18.334-40.96 40.96-40.96h138.752c22.626 0 40.96 18.334 40.96 40.96v138.752c0 22.626-18.334 40.96-40.96 40.96z"/><path d="M942.08 839.68c22.625 0 40.96-18.335 40.96-40.96V225.28c0-22.625-18.335-40.96-40.96-40.96H81.92c-22.625 0-40.96 18.335-40.96 40.96v573.44c0 22.625 18.335 40.96 40.96 40.96h860.16zm0 40.96H81.92C36.674 880.64 0 843.966 0 798.72V225.28c0-45.246 36.674-81.92 81.92-81.92h860.16c45.246 0 81.92 36.674 81.92 81.92v573.44c0 45.246-36.674 81.92-81.92 81.92z"/><path d="M491.787 225.28v573.44c0 11.311 9.169 20.48 20.48 20.48s20.48-9.169 20.48-20.48V225.28c0-11.311-9.169-20.48-20.48-20.48s-20.48 9.169-20.48 20.48z"/></svg>