<svg width="14" height="15" viewBox="0 0 14 15" fill="none" xmlns="http://www.w3.org/2000/svg">
<path d="M9.5 9.5V8.79167C9.5 8.04022 9.20149 7.31955 8.67014 6.7882C8.13878 6.25684 7.41811 5.95833 6.66667 5.95833H3.83333M3.83333 5.95833L5.95833 8.08333M3.83333 5.95833L5.95833 3.83333M12.3333 13.75V2.41667C12.3333 2.04094 12.1841 1.68061 11.9184 1.41493C11.6527 1.14926 11.2924 1 10.9167 1H2.41667C2.04094 1 1.68061 1.14926 1.41493 1.41493C1.14926 1.68061 1 2.04094 1 2.41667V13.75L3.83333 12.3333L6.66667 13.75L9.5 12.3333L12.3333 13.75Z" stroke="black" stroke-width="1.5" stroke-linecap="round" stroke-linejoin="round"/>
</svg>
