<svg width="21" height="21" viewBox="0 0 21 21" fill="none" xmlns="http://www.w3.org/2000/svg">
<path d="M1 1.71302C1 1.04309 1.54309 0.5 2.21302 0.5H7.0651C7.73503 0.5 8.27812 1.04309 8.27812 1.71302V7.77812C8.27812 8.44806 7.73503 8.99114 7.0651 8.99114H2.21302C1.54309 8.99114 1 8.44805 1 7.77812V1.71302ZM13.1302 1.71302C13.1302 1.04309 13.6733 0.5 14.3432 0.5H19.1953C19.8652 0.5 20.4083 1.04309 20.4083 1.71302V4.13906C20.4083 4.80899 19.8652 5.35208 19.1953 5.35208H14.3432C13.6733 5.35208 13.1302 4.80899 13.1302 4.13906V1.71302ZM1 15.0562C1 14.3863 1.54309 13.8432 2.21302 13.8432H7.0651C7.73503 13.8432 8.27812 14.3863 8.27812 15.0562V18.6953C8.27812 19.3652 7.73503 19.9083 7.0651 19.9083H2.21302C1.54309 19.9083 1 19.3652 1 18.6953V15.0562ZM13.1302 11.4172C13.1302 10.7472 13.6733 10.2042 14.3432 10.2042H19.1953C19.8652 10.2042 20.4083 10.7473 20.4083 11.4172V18.6953C20.4083 19.3652 19.8652 19.9083 19.1953 19.9083H14.3432C13.6733 19.9083 13.1302 19.3652 13.1302 18.6953V11.4172Z" stroke="black"/>
</svg>
