<svg width="27" height="26" viewBox="0 0 27 26" fill="none" xmlns="http://www.w3.org/2000/svg">
<path d="M20.2516 4.86498L2.67006 13.7923C2.47366 13.8921 2.39529 14.1321 2.49502 14.3285L7.52606 24.2367C7.62578 24.4331 7.86584 24.5114 8.06223 24.4117L25.6438 15.4843C25.8402 15.3846 25.9186 15.1446 25.8188 14.9482L20.7878 5.04002C20.6881 4.84362 20.448 4.76526 20.2516 4.86498Z" stroke="black" stroke-width="1.2" stroke-miterlimit="10" stroke-linecap="round"/>
<path d="M9.99401 18.6382C11.0349 18.6382 11.8786 17.7944 11.8786 16.7535C11.8786 15.7127 11.0349 14.8689 9.99401 14.8689C8.95315 14.8689 8.10938 15.7127 8.10938 16.7535C8.10938 17.7944 8.95315 18.6382 9.99401 18.6382Z" stroke="black" stroke-width="1.2" stroke-miterlimit="10" stroke-linecap="round"/>
<path d="M13.916 13.3555L18.4829 11.0369" stroke="black" stroke-width="1.2" stroke-miterlimit="10" stroke-linecap="round"/>
<path d="M15.0537 15.5957L19.6206 13.2771" stroke="black" stroke-width="1.2" stroke-miterlimit="10" stroke-linecap="round"/>
<path d="M19.3869 5.30076L14.4446 1.09748C14.4058 1.06327 14.3605 1.03712 14.3114 1.02055C14.2624 1.00399 14.2105 0.997328 14.1588 1.00097C14.1072 1.0046 14.0568 1.01846 14.0105 1.04175C13.9643 1.06503 13.9231 1.09726 13.8894 1.13658L3.42228 13.4141L2.55034 14.4307L1.09581 16.1432C1.06183 16.1824 1.03597 16.2278 1.01972 16.2771C1.00347 16.3263 0.997166 16.3782 1.00117 16.4299C1.00517 16.4815 1.0194 16.5319 1.04303 16.578C1.06666 16.6241 1.09922 16.6651 1.13882 16.6985L5.65881 20.5498" stroke="black" stroke-width="1.2" stroke-miterlimit="10" stroke-linecap="round"/>
<path d="M12.0859 9.01548L14.475 6.12598" stroke="black" stroke-width="1.2" stroke-miterlimit="10" stroke-linecap="round"/>
</svg>
