<svg width="12" height="16" viewBox="0 0 12 16" fill="none" xmlns="http://www.w3.org/2000/svg">
<path d="M11.3409 11.5995L10.011 9.41976V6.33015C10.0583 5.50866 9.87216 4.69056 9.47405 3.97042C9.07594 3.25028 8.48215 2.65752 7.76132 2.26067C7.77116 2.13421 7.77116 2.00718 7.76132 1.88072C7.75356 1.62595 7.69567 1.3752 7.59095 1.14282C7.48623 0.910437 7.33674 0.700971 7.15102 0.526395C6.9653 0.35182 6.747 0.215558 6.50859 0.1254C6.27018 0.035242 6.01634 -0.00704521 5.76157 0.000956005C5.50681 -0.00704521 5.25297 0.035242 5.01456 0.1254C4.77615 0.215558 4.55784 0.35182 4.37213 0.526395C4.18641 0.700971 4.03692 0.910437 3.9322 1.14282C3.82748 1.3752 3.76959 1.62595 3.76183 1.88072C3.74711 2.00694 3.74711 2.13445 3.76183 2.26067C3.041 2.65752 2.44721 3.25028 2.0491 3.97042C1.65099 4.69056 1.46482 5.50866 1.51211 6.33015V9.41976L0.182284 11.5995C0.0672517 11.7884 0.00442697 12.0045 0.000225512 12.2257C-0.00397594 12.4469 0.0505964 12.6652 0.158369 12.8584C0.266142 13.0515 0.423254 13.2126 0.61366 13.3252C0.804067 13.4378 1.02095 13.4979 1.24215 13.4992H3.01192C3.05818 14.1905 3.3704 14.8371 3.88307 15.3031C4.39574 15.7692 5.069 16.0186 5.76157 15.9989C6.45415 16.0186 7.12741 15.7692 7.64008 15.3031C8.15275 14.8371 8.46497 14.1905 8.51122 13.4992H10.281C10.5022 13.4979 10.7191 13.4378 10.9095 13.3252C11.0999 13.2126 11.257 13.0515 11.3648 12.8584C11.4725 12.6652 11.5271 12.4469 11.5229 12.2257C11.5187 12.0045 11.4559 11.7884 11.3409 11.5995ZM5.01167 1.88072C5.02945 1.6985 5.11791 1.53051 5.2581 1.41275C5.39828 1.29499 5.57902 1.23686 5.76157 1.2508C5.94412 1.23686 6.12487 1.29499 6.26505 1.41275C6.40524 1.53051 6.4937 1.6985 6.51148 1.88072C6.26175 1.86508 6.0113 1.86508 5.76157 1.88072C5.51186 1.86481 5.26138 1.86481 5.01167 1.88072ZM5.76157 14.7491C5.40028 14.7673 5.04539 14.6488 4.76749 14.4172C4.48958 14.1856 4.30904 13.8579 4.26176 13.4992H7.26138C7.21411 13.8579 7.03356 14.1856 6.75566 14.4172C6.47776 14.6488 6.12286 14.7673 5.76157 14.7491ZM1.24215 12.2494L2.58198 10.0797L2.76196 9.76972V6.33015C2.75955 5.58135 2.96741 4.84691 3.36188 4.21042C3.63406 3.83739 3.99803 3.54103 4.41847 3.35007C4.83892 3.15912 5.30158 3.08006 5.76157 3.12056C6.22157 3.08006 6.68423 3.15912 7.10467 3.35007C7.52512 3.54103 7.88908 3.83739 8.16127 4.21042C8.55573 4.84691 8.76359 5.58135 8.76119 6.33015V9.76972L8.94117 10.0797L10.281 12.2494H1.24215Z" fill="black"/>
</svg>
