<svg width="24" height="30" viewBox="0 0 24 30" fill="none" xmlns="http://www.w3.org/2000/svg">
<path d="M20.4955 11.3041C20.9035 10.9921 21.1435 10.5121 21.1435 9.98406C21.1435 9.48006 20.9035 9.00006 20.4955 8.66406C20.6635 8.40006 20.7595 8.06406 20.7595 7.75206C20.7595 6.81606 19.9915 6.07206 19.0795 6.07206H14.9755C15.1195 5.56806 15.3115 4.87206 15.4075 4.12806C15.4555 3.60006 15.4315 3.02406 15.3355 2.40006C15.1915 1.48806 14.4715 0.768064 13.5595 0.624064C12.8155 0.504064 12.1195 0.984064 11.9515 1.72806L11.5915 3.36006C11.3995 4.20006 10.9915 4.96806 10.3675 5.54406L8.44747 7.36806C8.27947 7.53606 8.03947 7.63206 7.79947 7.63206H7.29547C7.19947 7.29606 6.91147 7.05606 6.55147 7.05606H3.62347C3.19147 7.05606 2.85547 7.39206 2.85547 7.82406V14.3041C2.85547 14.7361 3.21547 15.0721 3.62347 15.0721H6.55147C6.91147 15.0721 7.19947 14.8321 7.29547 14.4961H8.18347L8.30347 14.7121C8.47147 14.9761 8.66347 15.2161 8.87947 15.4321C7.89547 16.2721 7.29547 17.4961 7.29547 18.8641C7.29547 21.3601 9.33547 23.4001 11.8315 23.4001C14.3275 23.4001 16.3435 21.3601 16.3435 18.8641C16.3435 17.8801 16.0315 16.9921 15.5035 16.2481C15.8395 16.2001 16.1755 16.1281 16.5115 16.0561C16.7035 16.1281 16.8475 16.1521 17.0155 16.1521H18.7435C19.6795 16.1521 20.4235 15.3841 20.4235 14.4721C20.4235 14.1361 20.3275 13.8241 20.1355 13.5361C20.5195 13.2001 20.7595 12.7441 20.7595 12.2401C20.7835 11.9041 20.6875 11.5921 20.4955 11.3041ZM5.08747 13.8001C4.70347 13.8001 4.39147 13.4881 4.39147 13.1041C4.39147 12.7201 4.70347 12.4081 5.08747 12.4081C5.47147 12.4081 5.78347 12.7201 5.78347 13.1041C5.78347 13.4881 5.47147 13.8001 5.08747 13.8001ZM16.7275 7.20006H19.1035C19.4155 7.20006 19.6555 7.44006 19.6555 7.75206C19.6555 8.06406 19.4155 8.30406 19.1035 8.30406H16.7275C16.4155 8.30406 16.1755 8.06406 16.1755 7.75206C16.1755 7.46406 16.4155 7.20006 16.7275 7.20006ZM11.8315 22.2961C9.95947 22.2961 8.42347 20.7601 8.42347 18.8881C8.42347 17.0161 9.95947 15.4801 11.8315 15.4801C13.7035 15.4801 15.2395 17.0161 15.2395 18.8881C15.2395 20.7601 13.7035 22.2961 11.8315 22.2961ZM15.4795 15.1201C15.1675 15.1681 14.8555 15.2161 14.5195 15.2401C13.7755 14.6881 12.8395 14.3521 11.8315 14.3521C11.1355 14.3521 10.4875 14.5201 9.88747 14.7841C9.64747 14.5921 9.43147 14.3761 9.26347 14.1121L8.97547 13.6321C8.87947 13.4641 8.68747 13.3681 8.49547 13.3681H7.34347V8.76006H7.79947C8.32747 8.76006 8.85547 8.54406 9.23947 8.18406L11.1595 6.36006C11.9515 5.61606 12.4795 4.65606 12.7195 3.57606L13.0795 1.94406C13.1035 1.80006 13.2475 1.70406 13.3915 1.72806C13.8235 1.80006 14.1595 2.13606 14.2315 2.59206C14.3035 3.09606 14.3275 3.57606 14.3035 4.00806C14.1835 5.20806 13.7035 6.38406 13.6795 6.43206C13.6075 6.60006 13.6315 6.81606 13.7275 6.96006C13.8235 7.12806 14.0155 7.22406 14.2075 7.22406H15.1195L15.0955 7.34406C14.3755 10.2961 11.9995 10.0801 11.9035 10.0561C11.7595 10.0321 11.5915 10.0801 11.4955 10.1761C11.3755 10.2721 11.3035 10.3921 11.2795 10.5601C11.2555 10.7041 11.3035 10.8721 11.3995 10.9921C11.4955 11.1121 11.6155 11.1841 11.7835 11.2081C11.7835 11.2081 11.8795 11.2321 12.0475 11.2321C12.5275 11.2321 13.7035 11.1361 14.7115 10.2721C14.7835 10.6801 14.9995 11.0641 15.3355 11.3281C15.1435 11.6161 15.0715 11.9281 15.0715 12.2401C15.0715 12.7441 15.2875 13.2001 15.6955 13.5361C15.5035 13.8241 15.4075 14.1361 15.4075 14.4721C15.3355 14.6881 15.3835 14.9041 15.4795 15.1201ZM18.7675 15.0241H17.0395C16.7275 15.0241 16.4875 14.7841 16.4875 14.4721C16.4875 14.1601 16.7275 13.9201 17.0395 13.9201H18.7675C19.0795 13.9201 19.3195 14.1601 19.3195 14.4721C19.3195 14.7601 19.0795 15.0241 18.7675 15.0241ZM19.0795 12.7921H16.7035C16.3915 12.7921 16.1515 12.5521 16.1515 12.2401C16.1515 11.9281 16.3915 11.6881 16.7035 11.6881H19.0795C19.3915 11.6881 19.6315 11.9281 19.6315 12.2401C19.6315 12.5281 19.3915 12.7921 19.0795 12.7921ZM19.4635 10.5361H16.3435C16.0315 10.5361 15.7915 10.2961 15.7915 9.98406C15.7915 9.67206 16.0315 9.43206 16.3435 9.43206H19.4635C19.7755 9.43206 20.0155 9.67206 20.0155 9.98406C20.0155 10.2961 19.7515 10.5361 19.4635 10.5361Z" fill="black"/>
<path d="M12.8881 17.5917L11.2561 19.1997L10.6561 18.5997C10.4401 18.3837 10.0801 18.3837 9.86415 18.5997C9.64815 18.8157 9.64815 19.1757 9.86415 19.3917L10.8721 20.3997C10.9921 20.5197 11.1121 20.5677 11.2561 20.5677C11.4001 20.5677 11.5441 20.5197 11.6401 20.3997L13.6561 18.3837C13.8721 18.1677 13.8721 17.8077 13.6561 17.5917C13.4401 17.3757 13.1041 17.3757 12.8881 17.5917Z" fill="black"/>
</svg>
