<svg width="21" height="15" viewBox="0 0 21 15" fill="none" xmlns="http://www.w3.org/2000/svg">
<path d="M6.39844 5.53125C6.39844 5.77734 6.35059 6.00977 6.25488 6.22852C6.15918 6.44727 6.0293 6.63867 5.86523 6.80273C5.70117 6.9668 5.50977 7.09668 5.29102 7.19238C5.07227 7.28809 4.83984 7.33594 4.59375 7.33594C4.34766 7.33594 4.11523 7.28809 3.89648 7.19238C3.67773 7.09668 3.48633 6.9668 3.32227 6.80273C3.1582 6.63867 3.02832 6.44727 2.93262 6.22852C2.83691 6.00977 2.78906 5.77734 2.78906 5.53125C2.78906 5.28516 2.83691 5.05273 2.93262 4.83398C3.02832 4.61523 3.1582 4.42383 3.32227 4.25977C3.48633 4.0957 3.67773 3.96582 3.89648 3.87012C4.11523 3.77441 4.34766 3.72656 4.59375 3.72656C4.83984 3.72656 5.07227 3.77441 5.29102 3.87012C5.50977 3.96582 5.70117 4.0957 5.86523 4.25977C6.0293 4.42383 6.15918 4.61523 6.25488 4.83398C6.35059 5.05273 6.39844 5.28516 6.39844 5.53125ZM4.59375 6.35156C4.81934 6.35156 5.01074 6.27295 5.16797 6.11572C5.3252 5.9585 5.40723 5.76367 5.41406 5.53125C5.41406 5.30566 5.33545 5.11426 5.17822 4.95703C5.021 4.7998 4.82617 4.71777 4.59375 4.71094C4.36816 4.71094 4.17676 4.78955 4.01953 4.94678C3.8623 5.104 3.78027 5.29883 3.77344 5.53125C3.77344 5.75684 3.85205 5.94824 4.00928 6.10547C4.1665 6.2627 4.36133 6.34473 4.59375 6.35156ZM9.84375 7.66406C10.0898 7.66406 10.3223 7.71191 10.541 7.80762C10.7598 7.90332 10.9512 8.0332 11.1152 8.19727C11.2793 8.36133 11.4092 8.55273 11.5049 8.77148C11.6006 8.99023 11.6484 9.22266 11.6484 9.46875C11.6484 9.71484 11.6006 9.94727 11.5049 10.166C11.4092 10.3848 11.2793 10.5762 11.1152 10.7402C10.9512 10.9043 10.7598 11.0342 10.541 11.1299C10.3223 11.2256 10.0898 11.2734 9.84375 11.2734C9.59766 11.2734 9.36523 11.2256 9.14648 11.1299C8.92773 11.0342 8.73633 10.9043 8.57227 10.7402C8.4082 10.5762 8.27832 10.3848 8.18262 10.166C8.08691 9.94727 8.03906 9.71484 8.03906 9.46875C8.03906 9.22266 8.08691 8.99023 8.18262 8.77148C8.27832 8.55273 8.4082 8.36133 8.57227 8.19727C8.73633 8.0332 8.92773 7.90332 9.14648 7.80762C9.36523 7.71191 9.59766 7.66406 9.84375 7.66406ZM9.84375 10.2891C10.0693 10.2891 10.2607 10.2104 10.418 10.0532C10.5752 9.896 10.6572 9.70117 10.6641 9.46875C10.6641 9.24316 10.5854 9.05176 10.4282 8.89453C10.271 8.7373 10.0762 8.65527 9.84375 8.64844C9.61816 8.64844 9.42676 8.72705 9.26953 8.88428C9.1123 9.0415 9.03027 9.23633 9.02344 9.46875C9.02344 9.69434 9.10205 9.88574 9.25928 10.043C9.4165 10.2002 9.61133 10.2822 9.84375 10.2891ZM8.63379 3.5625H9.74121L5.80371 11.4375H4.69629L8.63379 3.5625ZM14.4375 0.9375L21 7.5L14.4375 14.0625H0V0.9375H14.4375ZM13.894 12.75L19.144 7.5L13.894 2.25H1.3125V12.75H13.894ZM15.75 6.84375C15.9277 6.84375 16.0815 6.90869 16.2114 7.03857C16.3413 7.16846 16.4062 7.32227 16.4062 7.5C16.4062 7.67773 16.3413 7.83154 16.2114 7.96143C16.0815 8.09131 15.9277 8.15625 15.75 8.15625C15.5723 8.15625 15.4185 8.09131 15.2886 7.96143C15.1587 7.83154 15.0938 7.67773 15.0938 7.5C15.0938 7.32227 15.1587 7.16846 15.2886 7.03857C15.4185 6.90869 15.5723 6.84375 15.75 6.84375Z" fill="black"/>
</svg>
