<svg width="22" height="22" viewBox="0 0 22 22" fill="none" xmlns="http://www.w3.org/2000/svg">
<path d="M14.5954 15.1779C14.8233 15.1365 14.9886 14.9385 14.9886 14.7068V13.9328C14.9886 13.7011 14.8231 13.5031 14.5954 13.4617L14.1881 13.3877C14.121 13.1579 14.0287 12.9353 13.9131 12.7247L14.149 12.3841C14.2808 12.1939 14.2579 11.9366 14.094 11.7728L13.5466 11.2254C13.383 11.0616 13.1258 11.0384 12.9353 11.1704L12.5948 11.4063C12.3844 11.2909 12.1616 11.1985 11.9317 11.1313L11.8578 10.7241C11.8163 10.4961 11.6183 10.3306 11.3866 10.3306H10.6127C10.381 10.3306 10.183 10.4961 10.1415 10.7241L10.0676 11.1313C9.83798 11.1982 9.61517 11.2907 9.40453 11.4063L9.06447 11.1709C8.87419 11.0389 8.61698 11.062 8.45315 11.2259L7.90572 11.7733C7.74189 11.9371 7.71872 12.1941 7.85072 12.3844L8.08664 12.7247C7.97126 12.9351 7.87881 13.1579 7.81164 13.3879L7.40464 13.4619C7.17668 13.5033 7.01145 13.7013 7.01145 13.933V14.707C7.01145 14.9387 7.17692 15.1367 7.40464 15.1781L7.81187 15.2521C7.87904 15.4819 7.97126 15.7045 8.08687 15.9151L7.85096 16.2557C7.71919 16.4459 7.74213 16.7031 7.90596 16.867L8.45338 17.4144C8.61721 17.5782 8.87419 17.6012 9.0647 17.4694L9.405 17.2337C9.61541 17.3491 9.83821 17.4416 10.0683 17.5087L10.1422 17.9157C10.1837 18.1437 10.3817 18.3089 10.6134 18.3089H11.3873C11.619 18.3089 11.817 18.1434 11.8585 17.9157L11.9324 17.5085C12.1623 17.4413 12.3848 17.3491 12.5955 17.2335L12.936 17.4694C13.1263 17.6012 13.3835 17.5782 13.5473 17.4144L14.0947 16.8672C14.2586 16.7034 14.2817 16.4464 14.1497 16.2559L13.9134 15.9149C14.0287 15.7045 14.1212 15.4817 14.1884 15.2516L14.5954 15.1779ZM13.6814 15.0721C13.622 15.2846 13.5366 15.4903 13.428 15.6832C13.3371 15.8442 13.3463 16.0387 13.4516 16.1908L13.6803 16.5211L13.2012 17.0002L12.8709 16.7713C12.719 16.6659 12.5246 16.6568 12.3633 16.7476C12.1702 16.8562 11.9647 16.9416 11.7522 17.0011C11.5743 17.0509 11.4433 17.1949 11.4103 17.3767L11.3387 17.7718H10.6611L10.5895 17.3767C10.5565 17.1949 10.4254 17.0509 10.2476 17.0013C10.035 16.9419 9.82932 16.8564 9.63647 16.7479C9.47521 16.657 9.28072 16.6662 9.12883 16.7715L8.7986 17.0004L8.31951 16.5213L8.5484 16.1911C8.65372 16.0392 8.66285 15.8444 8.57204 15.6834C8.46345 15.4903 8.37802 15.2849 8.31857 15.0723C8.26872 14.8945 8.12479 14.7634 7.94294 14.7304L7.54787 14.6588V13.9812L7.9427 13.9096C8.12455 13.8766 8.26849 13.7456 8.31834 13.5677C8.37802 13.3549 8.46321 13.1494 8.57181 12.9564C8.66238 12.7953 8.65349 12.6006 8.54817 12.449L8.31951 12.1187L8.7986 11.6396L9.12883 11.8685C9.28096 11.9739 9.47545 11.983 9.63647 11.8922C9.82955 11.7833 10.0353 11.6981 10.2476 11.6387C10.4254 11.5889 10.5565 11.4449 10.5895 11.2631L10.6611 10.868H11.3387L11.4103 11.2631C11.4433 11.4449 11.5743 11.5886 11.7522 11.6385C11.9647 11.6979 12.1702 11.7831 12.3633 11.8919C12.5246 11.9827 12.7188 11.9736 12.8709 11.8683L13.2012 11.6394L13.6803 12.1185L13.4514 12.449C13.346 12.6009 13.3369 12.7953 13.4277 12.9566C13.5363 13.1497 13.6215 13.3552 13.6812 13.5677C13.731 13.7456 13.875 13.8766 14.0568 13.9096L14.4519 13.9812V14.6588L14.0568 14.7304C13.8752 14.7632 13.7313 14.8942 13.6814 15.0721ZM11 12.1435C9.80006 12.1435 8.82364 13.1197 8.82364 14.3199C8.82364 15.5198 9.79983 16.4963 11 16.4963C12.2002 16.4963 13.1764 15.5201 13.1764 14.3199C13.1764 13.1197 12.1999 12.1435 11 12.1435ZM11 15.9594C10.0959 15.9594 9.3603 15.2238 9.3603 14.3197C9.3603 13.4156 10.0959 12.68 11 12.68C11.9041 12.68 12.6397 13.4156 12.6397 14.3197C12.6397 15.2238 11.9041 15.9594 11 15.9594ZM3.88206 16.8078C4.99119 16.8078 5.89343 15.9055 5.89343 14.7964C5.89343 13.7786 5.13279 12.9369 4.15051 12.8052V6.96885H7.27919C7.17598 7.31781 7.11817 7.68619 7.11817 8.06815V8.94651C7.11817 9.09466 7.23823 9.21472 7.38638 9.21472H14.6136C14.7618 9.21472 14.8818 9.09466 14.8818 8.94651V8.06815C14.8818 7.68619 14.8243 7.31781 14.7208 6.96885H17.8497V12.8052C16.8674 12.9369 16.1068 13.7786 16.1068 14.7964C16.1068 15.9055 17.009 16.8078 18.1182 16.8078C19.2273 16.8078 20.1295 15.9055 20.1295 14.7964C20.1295 13.7786 19.3689 12.9369 18.3866 12.8052V6.70064C18.3866 6.55249 18.2666 6.43243 18.1184 6.43243H14.5153C13.8965 5.10821 12.5554 4.18632 11 4.18632C9.44432 4.18632 8.10349 5.10821 7.48445 6.43243H3.88206C3.73392 6.43243 3.61385 6.55249 3.61385 6.70064V12.8054C2.63157 12.9372 1.87094 13.7788 1.87094 14.7966C1.8707 15.9055 2.77294 16.8078 3.88206 16.8078ZM19.5926 14.7964C19.5926 15.6095 18.931 16.2711 18.1179 16.2711C17.3049 16.2711 16.6432 15.6095 16.6432 14.7964C16.6432 13.9833 17.3049 13.3217 18.1179 13.3217C18.9312 13.3217 19.5926 13.9833 19.5926 14.7964ZM11 4.72274C12.8445 4.72274 14.3454 6.22343 14.3454 8.06815V8.6783H13.3933V7.44606C13.3933 7.29791 13.2733 7.17785 13.1251 7.17785C12.977 7.17785 12.8569 7.29791 12.8569 7.44606V8.6783H9.14334V7.44606C9.14334 7.29791 9.02328 7.17785 8.87513 7.17785C8.72698 7.17785 8.60692 7.29791 8.60692 7.44606V8.6783H7.65483V8.06815C7.6546 6.22343 9.15528 4.72274 11 4.72274ZM3.88206 13.3217C4.69513 13.3217 5.35677 13.9833 5.35677 14.7964C5.35677 15.6095 4.69513 16.2711 3.88206 16.2711C3.069 16.2711 2.40736 15.6095 2.40736 14.7964C2.40736 13.9833 3.06877 13.3217 3.88206 13.3217ZM18.1179 16.9714C16.5625 16.9714 15.2214 17.8933 14.6026 19.2175H7.39738C6.77857 17.8933 5.43751 16.9714 3.88206 16.9714C1.74151 16.9714 0 18.7129 0 20.8532V21.7316C0 21.8799 0.120064 22 0.268447 22H7.49568C7.64383 22 7.76389 21.8799 7.76389 21.7318V20.8532C7.76389 20.4712 7.70632 20.1028 7.60287 19.7539H14.3971C14.2939 20.1028 14.2361 20.4712 14.2361 20.8532V21.7316C14.2361 21.8797 14.3562 21.9998 14.5043 21.9998H21.7316C21.8799 22 22 21.8799 22 21.7316V20.8532C22 18.7129 20.2585 16.9714 18.1179 16.9714ZM7.22723 21.4633H6.27515V20.2311C6.27515 20.083 6.15509 19.9629 6.00694 19.9629C5.85879 19.9629 5.73872 20.083 5.73872 20.2311V21.4633H2.02517V20.2311C2.02517 20.083 1.90511 19.9629 1.75696 19.9629C1.60881 19.9629 1.48851 20.083 1.48851 20.2311V21.4633H0.53666V20.8532C0.53666 19.0085 2.03734 17.5078 3.88206 17.5078C5.72655 17.5078 7.22747 19.0085 7.22747 20.8532L7.22723 21.4633ZM21.4633 21.4633H20.5113V20.2311C20.5113 20.083 20.3912 19.9629 20.243 19.9629C20.0949 19.9629 19.9748 20.083 19.9748 20.2311V21.4633H16.2613V20.2311C16.2613 20.083 16.1412 19.9629 15.9931 19.9629C15.8449 19.9629 15.7249 20.083 15.7249 20.2311V21.4633H14.7728V20.8532C14.7728 19.0085 16.2734 17.5078 18.1182 17.5078C19.9629 17.5078 21.4633 19.0087 21.4633 20.8532V21.4633ZM11 4.02249C12.1091 4.02249 13.0114 3.12026 13.0114 2.01113C13.0114 0.902234 12.1091 0 11 0C9.89087 0 8.98864 0.902234 8.98864 2.01136C8.98864 3.12026 9.89087 4.02249 11 4.02249ZM11 0.53666C11.8131 0.53666 12.4747 1.1983 12.4747 2.01136C12.4747 2.82443 11.8131 3.48606 11 3.48606C10.1869 3.48606 9.5253 2.82443 9.5253 2.01136C9.5253 1.19806 10.1869 0.53666 11 0.53666Z" fill="black"/>
</svg>
