<svg width="25" height="20" viewBox="0 0 25 20" fill="none" xmlns="http://www.w3.org/2000/svg">
<path d="M12.313 5.4369C12.313 5.55154 12.3082 5.66374 12.3009 5.77838C12.296 5.82959 12.2911 5.87837 12.2862 5.92958C12.2789 5.99301 12.3106 5.99301 12.2887 5.91739C12.296 5.94177 12.2765 5.99301 12.274 6.01739C12.2399 6.22958 12.1887 6.43689 12.1228 6.64178C12.0911 6.73935 12.0545 6.8369 12.0155 6.93202C11.9814 7.01739 12.0277 6.91008 12.0277 6.9052C12.0301 6.92227 11.996 6.97836 11.9887 6.993C11.9667 7.04179 11.9423 7.09056 11.918 7.13934C11.8204 7.32959 11.7106 7.51251 11.5862 7.68814C11.5716 7.71008 11.4887 7.82716 11.5301 7.76617C11.5716 7.7052 11.4838 7.82228 11.4692 7.84178C11.4009 7.92471 11.3301 8.00278 11.257 8.08081C11.1838 8.15643 11.1057 8.23204 11.0277 8.30276C10.9911 8.33449 10.957 8.36618 10.9179 8.39789C10.8984 8.41496 10.8765 8.43204 10.857 8.44911C10.8496 8.45642 10.8399 8.4613 10.8326 8.46863C10.7911 8.50032 10.7984 8.49545 10.8545 8.45155C10.8399 8.48326 10.7521 8.52714 10.7253 8.54666C10.6911 8.57106 10.6545 8.59544 10.6204 8.61984C10.5277 8.68082 10.4301 8.73935 10.3326 8.79301C10.2423 8.8418 10.1521 8.88814 10.0594 8.93202C10.0399 8.94179 10.0204 8.9491 10.0009 8.95886C9.89842 9.00764 10.1033 8.91983 9.99844 8.9613C9.94722 8.9808 9.89842 9.00032 9.84723 9.01984C9.64233 9.09544 9.43014 9.15399 9.21551 9.19543C9.16676 9.2052 9.11795 9.21496 9.06918 9.22227C9.04722 9.2247 9.00821 9.23935 8.98625 9.23448C9.0448 9.24911 9.07161 9.2247 9.01552 9.22958C8.90332 9.24179 8.79112 9.25154 8.67894 9.25642C8.4521 9.26617 8.22528 9.25398 7.99843 9.22958C7.90578 9.21983 8.02283 9.23691 8.02771 9.23448C8.00575 9.24179 7.9521 9.22227 7.92772 9.21983C7.87892 9.21251 7.83014 9.20276 7.78137 9.19301C7.67406 9.17105 7.56672 9.14423 7.46185 9.11496C7.36185 9.08569 7.26428 9.05398 7.16673 9.01984C7.11551 9.00032 7.06674 8.9808 7.01552 8.9613C6.95695 8.93935 7.00331 8.97836 7.04234 8.97349C7.02038 8.97594 6.9765 8.94423 6.95453 8.93448C6.75941 8.84422 6.57164 8.73935 6.39355 8.62228C6.35454 8.59544 6.31308 8.56862 6.27405 8.54179C6.24479 8.52228 6.17161 8.48813 6.15698 8.45642C6.17406 8.46861 6.18866 8.48082 6.20575 8.493C6.19357 8.48325 6.18136 8.4735 6.16919 8.46373C6.14966 8.44667 6.1277 8.42958 6.1082 8.41252C6.0643 8.37595 6.01796 8.33691 5.97648 8.29788C5.82284 8.15886 5.67894 8.01009 5.54478 7.84912C5.52774 7.82962 5.51062 7.80766 5.49357 7.78815C5.49115 7.78328 5.48623 7.78084 5.48381 7.77595C5.45212 7.7345 5.457 7.74182 5.50088 7.79791C5.46918 7.78328 5.43501 7.7101 5.41553 7.68083C5.34967 7.58816 5.28868 7.49547 5.23259 7.3979C5.18382 7.31497 5.13745 7.22963 5.09356 7.14426C5.06917 7.09547 5.04478 7.04669 5.02283 6.99791C5.01307 6.97839 5.00577 6.95888 4.99603 6.93938C4.9521 6.84425 5.03013 7.02718 4.99356 6.93693C4.91308 6.73448 4.84479 6.52719 4.79356 6.315C4.7716 6.21744 4.74968 6.11987 4.73503 6.02232C4.73016 6.00037 4.71307 5.94426 4.7204 5.92232C4.71795 5.92964 4.73503 6.04427 4.72528 5.95158C4.71795 5.89061 4.71307 5.82964 4.7082 5.76622C4.69114 5.54428 4.69114 5.32233 4.71063 5.10036C4.71553 5.04427 4.7204 4.98817 4.72772 4.93207C4.73259 4.87596 4.7082 4.9028 4.72285 4.96133C4.71795 4.93938 4.73259 4.90036 4.73503 4.87842C4.75455 4.76378 4.77649 4.64912 4.80331 4.53694C4.85211 4.3345 4.92039 4.13939 4.99603 3.94672C5.03747 3.8394 4.94966 4.04672 4.99846 3.94427C5.00819 3.92476 5.0155 3.90526 5.02527 3.88574C5.04722 3.83696 5.07162 3.78819 5.09601 3.73941C5.14477 3.64429 5.196 3.54916 5.25209 3.45892C5.30089 3.37599 5.35455 3.2955 5.41063 3.21745C5.43014 3.19061 5.4716 3.10283 5.50575 3.0882C5.46673 3.10525 5.44964 3.15648 5.48866 3.11014C5.51307 3.08087 5.53503 3.0516 5.55942 3.02232C5.69354 2.8638 5.83745 2.71257 5.99112 2.57597C6.03015 2.5394 6.07161 2.50525 6.11305 2.4711C6.1326 2.45647 6.24965 2.36867 6.18866 2.41013C6.1277 2.45158 6.24479 2.36867 6.26674 2.35403C6.31795 2.31744 6.37161 2.28087 6.42528 2.24672C6.59601 2.13695 6.77403 2.03696 6.95944 1.9516C6.9765 1.94427 7.03016 1.90768 7.04725 1.91255C7.04236 1.91255 6.93506 1.95647 7.0204 1.92476C7.07164 1.90526 7.12041 1.88574 7.17164 1.86623C7.27405 1.82964 7.37895 1.7955 7.48384 1.76623C7.57895 1.73939 7.6765 1.71744 7.77164 1.6955C7.82528 1.68329 7.88138 1.67354 7.93503 1.66621C7.96188 1.66135 7.99113 1.6589 8.01797 1.65402C8.0643 1.64671 7.90578 1.66621 8.02041 1.65402C8.23991 1.62964 8.46185 1.61989 8.68384 1.62964C8.79114 1.63452 8.89847 1.64183 9.00578 1.65402C9.03993 1.65892 9.11798 1.67842 8.99357 1.6516C9.01552 1.65648 9.03747 1.6589 9.05943 1.66135C9.12529 1.67111 9.19113 1.68329 9.25456 1.69794C9.46431 1.74184 9.66919 1.80037 9.86918 1.87353C9.91551 1.89061 9.95942 1.90768 10.0058 1.9272C10.1082 1.96622 9.93014 1.89061 9.99357 1.92233C10.018 1.93452 10.0423 1.94427 10.0667 1.95647C10.1643 2.00037 10.2594 2.04915 10.3545 2.1028C10.4424 2.1516 10.5301 2.20525 10.6155 2.26135C10.6545 2.28818 10.696 2.315 10.735 2.34183C10.757 2.35648 10.7789 2.37353 10.8009 2.38817C10.8131 2.39793 10.8277 2.4077 10.8399 2.41745C10.8814 2.44914 10.8741 2.44183 10.818 2.40037C10.8936 2.4272 10.9789 2.53207 11.0375 2.58574C11.1179 2.65646 11.1936 2.72964 11.2667 2.80769C11.3399 2.8833 11.4107 2.96378 11.4789 3.04671C11.5033 3.07599 11.5472 3.11012 11.5594 3.14671C11.5472 3.12964 11.535 3.11501 11.5228 3.09793C11.535 3.11501 11.5497 3.13208 11.5619 3.14915C11.5814 3.17598 11.5984 3.20036 11.6179 3.22719C11.7375 3.39793 11.8448 3.57843 11.9399 3.76378C11.9619 3.80766 11.9838 3.85158 12.0033 3.89546C12.0155 3.91988 12.0253 3.94426 12.0375 3.96864C12.0692 4.03206 11.9936 3.85402 12.0326 3.95645C12.0716 4.05646 12.1107 4.15889 12.1448 4.26132C12.2131 4.47108 12.2619 4.68573 12.2984 4.90279C12.3009 4.92474 12.3033 4.9467 12.3082 4.96864C12.2838 4.85158 12.3009 4.90767 12.3033 4.93938C12.3082 4.99547 12.3155 5.05156 12.3204 5.10768C12.3106 5.20767 12.313 5.32228 12.313 5.4369C12.313 5.69301 12.5375 5.93693 12.8009 5.92476C13.0643 5.9126 13.2887 5.71013 13.2887 5.43693C13.2839 4.46133 12.9887 3.47841 12.4156 2.6833C11.8351 1.87596 11.0448 1.2711 10.1131 0.9272C8.2619 0.246704 6.06921 0.844284 4.82054 2.36865C4.18153 3.15158 3.7986 4.08571 3.72055 5.09549C3.64494 6.06865 3.88884 7.07355 4.39374 7.91009C4.88156 8.71744 5.61812 9.39058 6.47911 9.78082C7.41815 10.2052 8.44986 10.3296 9.46449 10.1296C11.3645 9.75398 12.9255 8.14421 13.2181 6.22716C13.2572 5.96617 13.284 5.70276 13.2864 5.43936C13.2864 5.18327 13.062 4.93936 12.7986 4.95154C12.5376 4.96129 12.3155 5.16373 12.313 5.4369Z" fill="black"/>
<path d="M20.9545 6.79039C20.9545 6.87086 20.952 6.94891 20.9447 7.02939C20.9423 7.06844 20.9374 7.10745 20.9349 7.14647C20.9227 7.2684 20.9496 7.06596 20.93 7.18306C20.9057 7.33914 20.8666 7.49525 20.8179 7.64648C20.7934 7.71965 20.7691 7.79039 20.7398 7.86111C20.7081 7.94162 20.7813 7.77574 20.7325 7.87819C20.713 7.91722 20.6959 7.95624 20.6764 7.99525C20.6057 8.13429 20.5276 8.26599 20.4374 8.39282C20.4203 8.41721 20.3886 8.48064 20.3617 8.49527C20.3593 8.49771 20.4276 8.41966 20.3886 8.45868C20.3788 8.47087 20.369 8.48306 20.3593 8.49527C20.3057 8.56111 20.2496 8.62453 20.1886 8.68552C20.1373 8.73917 20.0838 8.79039 20.0276 8.83917C20.0032 8.86111 19.9788 8.88063 19.9545 8.90259C19.9373 8.91722 19.9227 8.9294 19.9057 8.94405C19.8374 9.0026 19.9666 8.90259 19.9154 8.93672C19.7886 9.02697 19.6642 9.11478 19.5276 9.18797C19.4618 9.22454 19.3959 9.25867 19.3276 9.29038C19.3129 9.29772 19.2983 9.30259 19.2837 9.30991C19.2251 9.34161 19.3715 9.27575 19.3105 9.29772C19.2691 9.31234 19.2301 9.32941 19.1886 9.34406C19.0398 9.39771 18.8861 9.4416 18.7324 9.47088C18.6934 9.47819 18.6569 9.48553 18.6178 9.49039C18.5032 9.50991 18.6886 9.48553 18.5983 9.49284C18.5154 9.5026 18.43 9.50991 18.3447 9.51234C18.1788 9.51722 18.0179 9.50991 17.852 9.49284C17.7617 9.48309 17.9471 9.50747 17.8324 9.49039C17.7934 9.48309 17.7569 9.47819 17.7179 9.47088C17.6374 9.45382 17.5568 9.4343 17.4788 9.41235C17.4056 9.39285 17.3324 9.36843 17.2617 9.34162C17.2252 9.32941 17.191 9.3148 17.1569 9.30016C17.091 9.27578 17.1691 9.31724 17.1837 9.31237C17.1764 9.3148 17.1325 9.2904 17.1251 9.28551C16.9837 9.21966 16.8495 9.14405 16.7178 9.06113C16.6544 9.01966 16.5959 8.97575 16.5349 8.93187C16.4813 8.89528 16.6056 8.99285 16.5593 8.94894C16.5471 8.93918 16.5349 8.92943 16.5227 8.91966C16.491 8.89285 16.4569 8.866 16.4251 8.83675C16.3105 8.7343 16.2032 8.6221 16.1056 8.50504C16.091 8.48795 16.0788 8.4709 16.0641 8.45625C16.0276 8.41478 16.0934 8.49283 16.091 8.49283C16.0666 8.47821 16.0423 8.42697 16.0252 8.4026C15.9788 8.33673 15.9349 8.27089 15.8935 8.20259C15.8544 8.13916 15.8178 8.07332 15.7837 8.00746C15.7667 7.97331 15.7495 7.93916 15.7349 7.90747C15.7251 7.88797 15.7178 7.86842 15.7081 7.84892C15.6788 7.79282 15.752 7.96356 15.7129 7.86111C15.6569 7.71965 15.6105 7.57578 15.5739 7.42697C15.5569 7.35136 15.5398 7.27576 15.5276 7.20015C15.5276 7.20015 15.5129 7.13919 15.5178 7.13429C15.5154 7.13675 15.5324 7.26112 15.5227 7.16356C15.5178 7.11967 15.5129 7.07332 15.5105 7.02943C15.4983 6.86601 15.4983 6.70016 15.5129 6.53673C15.5154 6.49771 15.5203 6.45868 15.5251 6.41966C15.5349 6.32942 15.5081 6.52454 15.5276 6.40015C15.5398 6.31966 15.5569 6.23672 15.5763 6.15625C15.613 6.00258 15.6666 5.85623 15.7227 5.70747C15.7422 5.65627 15.7056 5.75139 15.7056 5.74895C15.7032 5.74408 15.7276 5.70016 15.7324 5.69041C15.7471 5.65627 15.7642 5.62212 15.7813 5.58797C15.8178 5.51723 15.8568 5.4465 15.8983 5.37823C15.9373 5.3148 15.9788 5.25139 16.0203 5.19041C16.0423 5.16115 16.0641 5.12944 16.0861 5.10017C16.1178 5.05627 16.0593 5.13675 16.0593 5.13675C16.0569 5.12944 16.1032 5.0831 16.1105 5.07578C16.2081 4.95872 16.3154 4.84653 16.43 4.74408C16.4569 4.7197 16.4861 4.6953 16.5154 4.6709C16.5276 4.66115 16.5398 4.6514 16.552 4.64163C16.6178 4.58554 16.5325 4.65384 16.5276 4.65871C16.5593 4.60751 16.6715 4.55385 16.7227 4.5197C16.852 4.43433 16.9885 4.3587 17.13 4.2953C17.1398 4.29042 17.1837 4.26604 17.1886 4.26846C17.191 4.26846 17.0959 4.30505 17.1471 4.28554C17.1837 4.27335 17.2179 4.25871 17.2519 4.24408C17.3276 4.21481 17.4056 4.19043 17.4837 4.16846C17.5568 4.14651 17.6324 4.12944 17.708 4.11482C17.7471 4.1075 17.7837 4.10019 17.8227 4.09285C17.8446 4.09042 17.8691 4.08798 17.8885 4.08311C17.8642 4.09042 17.791 4.09529 17.8593 4.08798C18.0276 4.07091 18.1983 4.0636 18.3691 4.06847C18.4423 4.07091 18.5154 4.07822 18.5886 4.08556C18.7154 4.10019 18.5179 4.07335 18.6081 4.08798C18.652 4.09529 18.6959 4.10262 18.7398 4.11237C18.9008 4.14407 19.0593 4.188 19.2129 4.24652C19.2422 4.25871 19.2739 4.2709 19.3032 4.28067C19.391 4.3148 19.2788 4.26848 19.2764 4.26848C19.2812 4.26604 19.3349 4.2953 19.3349 4.2953C19.4081 4.32945 19.4788 4.36603 19.5495 4.40504C19.6154 4.44164 19.6788 4.48065 19.7422 4.5197C19.7934 4.55385 19.9056 4.60504 19.9373 4.65871C19.9398 4.66115 19.8593 4.59531 19.9007 4.63188C19.9154 4.64653 19.9349 4.65871 19.9495 4.67334C19.9788 4.69774 20.0056 4.72214 20.0349 4.74652C20.0935 4.80017 20.152 4.85384 20.2056 4.91237C20.2569 4.96603 20.3057 5.02213 20.3544 5.07822C20.3642 5.09042 20.374 5.10263 20.3837 5.11481C20.4178 5.15384 20.4178 5.12457 20.3666 5.09042C20.3959 5.10994 20.4227 5.16603 20.4423 5.19286C20.53 5.31969 20.6105 5.45142 20.6812 5.59042C20.6983 5.62457 20.7154 5.65872 20.7301 5.69287C20.7373 5.7075 20.7423 5.72212 20.7495 5.73677C20.7788 5.79529 20.7154 5.64651 20.7373 5.70995C20.7642 5.78555 20.7959 5.86115 20.8203 5.93921C20.8691 6.09041 20.9056 6.24652 20.9325 6.40263C20.952 6.51727 20.9276 6.33191 20.9349 6.42215C20.9398 6.46118 20.9423 6.5002 20.9471 6.53922C20.952 6.61972 20.9545 6.70502 20.9545 6.79039C20.9569 7.04649 21.1788 7.29044 21.4423 7.27826C21.7056 7.26607 21.9325 7.06363 21.9301 6.79044C21.9228 5.22701 20.93 3.84167 19.4667 3.30511C18.0496 2.7856 16.3569 3.24413 15.4009 4.40996C14.9033 5.01726 14.6082 5.73433 14.5423 6.51727C14.4789 7.26849 14.6691 8.04898 15.0569 8.69287C15.4325 9.31481 16.0008 9.84167 16.6667 10.1416C17.4032 10.4733 18.2008 10.5684 18.9936 10.4099C20.4472 10.1197 21.6496 8.87579 21.874 7.4075C21.9057 7.20262 21.9277 6.99774 21.9277 6.79042C21.9301 6.53433 21.7033 6.29044 21.4398 6.3026C21.1764 6.31479 20.9569 6.5172 20.9545 6.79039Z" fill="black"/>
<path d="M15.3716 16.3668V17.9692C15.3716 18.0449 15.3692 18.118 15.3692 18.1936C15.3692 18.3058 15.3984 18.0887 15.3692 18.1961C15.3643 18.218 15.3594 18.24 15.3545 18.2595C15.3521 18.2668 15.3301 18.3521 15.3253 18.3521C15.3253 18.3521 15.3789 18.2522 15.3277 18.3375C15.3131 18.3595 15.3033 18.3839 15.2887 18.4083C15.2838 18.418 15.2765 18.4253 15.2716 18.435C15.2423 18.4789 15.2472 18.4717 15.2911 18.4131C15.2984 18.435 15.174 18.5351 15.1594 18.5497C15.0814 18.6229 15.2497 18.4985 15.157 18.5497C15.1374 18.5595 15.1204 18.5716 15.1033 18.5838C15.096 18.5887 15.0228 18.6326 15.0179 18.6277C15.0374 18.6204 15.057 18.6107 15.074 18.6034C15.0545 18.6107 15.0326 18.618 15.0131 18.6253C14.9911 18.6326 14.9716 18.6375 14.9496 18.6424C14.9399 18.6448 14.9277 18.6472 14.9179 18.6497C14.8643 18.6594 14.874 18.657 14.9496 18.6472C14.9472 18.6546 14.857 18.6522 14.8472 18.6522H14.8106C14.1204 18.6546 13.4301 18.6522 12.7399 18.6522H8.77893H4.70333H2.28627H2.14969H2.11554C2.10335 18.6522 2.09359 18.6522 2.08139 18.6497C2.02773 18.6448 2.0375 18.6472 2.11066 18.6546C2.10823 18.6594 2.03994 18.64 2.03019 18.6375C2.00335 18.6302 1.97896 18.6204 1.95212 18.6155C1.84724 18.5887 2.0448 18.6693 1.94969 18.6155C1.92529 18.6034 1.90335 18.5912 1.87896 18.5765C1.86433 18.5692 1.85212 18.5595 1.83748 18.5522C1.7936 18.5229 1.80092 18.5278 1.85945 18.5716C1.83994 18.5765 1.75945 18.4814 1.74481 18.4644C1.7375 18.4571 1.73018 18.4497 1.72286 18.44C1.68871 18.3985 1.69603 18.4083 1.73994 18.4644C1.73506 18.4668 1.69116 18.3912 1.68871 18.3839C1.67897 18.3643 1.6692 18.3448 1.65945 18.3278C1.60579 18.2326 1.68628 18.4302 1.65945 18.3253C1.65213 18.2936 1.63993 18.2643 1.63262 18.2302C1.63018 18.2204 1.62774 18.2083 1.62532 18.1985C1.61554 18.1448 1.61799 18.1546 1.62774 18.2302C1.61311 18.2253 1.62286 18.0082 1.62286 17.9863V17.5692V16.5717V16.3692C1.62286 16.2668 1.62532 16.1644 1.63262 16.062C1.6375 15.9936 1.64237 15.9278 1.64969 15.8595C1.65213 15.8375 1.65456 15.8156 1.65701 15.7936C1.66433 15.74 1.66188 15.7497 1.65213 15.8229C1.65456 15.8009 1.65945 15.779 1.66188 15.757C1.69848 15.518 1.75213 15.2814 1.8253 15.0497C1.85945 14.94 1.89604 14.8326 1.9375 14.7253C1.94725 14.701 1.95701 14.6742 1.96676 14.6497C2.00822 14.5424 1.92042 14.7497 1.9692 14.6473C1.99604 14.5888 2.02286 14.5302 2.04969 14.4717C2.15213 14.2595 2.27164 14.0546 2.40335 13.8595C2.43263 13.8156 2.46432 13.7717 2.49604 13.7278C2.50823 13.7083 2.53262 13.6619 2.55213 13.6497C2.53994 13.6668 2.52774 13.6814 2.51555 13.6985C2.52774 13.6814 2.54238 13.6643 2.55457 13.6473C2.62774 13.557 2.70335 13.4668 2.78384 13.3814C2.94237 13.2107 3.11309 13.0497 3.29602 12.9009C3.31796 12.8839 3.34479 12.8522 3.37162 12.8424C3.26675 12.8912 3.33992 12.8668 3.37406 12.8424C3.41796 12.8107 3.45943 12.779 3.50332 12.7498C3.60332 12.679 3.70821 12.6132 3.81553 12.5522C3.91308 12.4961 4.01308 12.4424 4.11308 12.3912C4.16186 12.3668 4.21065 12.3449 4.25942 12.3229C4.28137 12.3132 4.32528 12.2839 4.34724 12.2839C4.28137 12.3107 4.27162 12.3156 4.32041 12.2961C4.33992 12.2888 4.35943 12.279 4.38137 12.2717C4.60576 12.1839 4.83503 12.1132 5.06919 12.0595C5.1765 12.0351 5.28625 12.0132 5.39601 11.9961C5.42772 11.9913 5.4643 11.979 5.49601 11.9814C5.36675 11.9766 5.46187 11.9863 5.49844 11.9814C5.56674 11.9741 5.6326 11.9668 5.70089 11.9644C5.82285 11.9571 5.94481 11.9522 6.0643 11.9522H7.29845H10.8521H10.9448C11.057 11.9522 11.1692 11.9571 11.2838 11.9644C11.3521 11.9692 11.4228 11.9741 11.4911 11.9839C11.5107 11.9863 11.6472 12.0059 11.5253 11.9863C11.5667 11.9937 11.6058 11.9985 11.6472 12.0059C11.9472 12.0571 12.2424 12.1351 12.5253 12.2424C12.557 12.2546 12.5887 12.2668 12.618 12.279C12.6351 12.2863 12.757 12.34 12.6497 12.2912C12.7107 12.318 12.7716 12.3449 12.8302 12.3741C12.9741 12.4424 13.1131 12.518 13.2472 12.601C13.3595 12.6693 13.4692 12.7424 13.5765 12.8205C13.6082 12.8424 13.6424 12.8668 13.6716 12.8912C13.5863 12.818 13.6521 12.8766 13.6741 12.8936C13.7351 12.9424 13.796 12.9937 13.8546 13.0449C14.0546 13.2205 14.2399 13.4132 14.4082 13.6205C14.4277 13.6448 14.4448 13.6668 14.4643 13.6912C14.5107 13.7498 14.396 13.5961 14.4643 13.6936C14.5034 13.7473 14.5424 13.8009 14.5814 13.8571C14.6595 13.9717 14.7351 14.0912 14.8034 14.2132C14.8668 14.3254 14.9253 14.4399 14.979 14.5546C14.9912 14.5814 15.0034 14.6107 15.018 14.6375C15.0716 14.7522 14.9814 14.54 15.0253 14.657C15.0521 14.7253 15.079 14.7936 15.1034 14.8643C15.1912 15.1107 15.257 15.3644 15.3058 15.6229C15.3131 15.6595 15.318 15.6985 15.3253 15.7351C15.3302 15.7595 15.357 15.8839 15.3302 15.757C15.3424 15.818 15.3448 15.8839 15.3497 15.9473C15.3668 16.0815 15.3716 16.2229 15.3716 16.3668C15.3716 16.6229 15.596 16.8668 15.8595 16.8546C16.1229 16.8424 16.3473 16.64 16.3473 16.3668C16.3424 15.1278 15.9156 13.9497 15.1473 12.979C14.3888 12.0205 13.2693 11.3351 12.0717 11.0888C11.4985 10.9717 10.9302 10.9717 10.3498 10.9717H8.36199H6.47174C5.89124 10.9717 5.31563 10.9887 4.74734 11.1278C2.70346 11.6253 1.05954 13.3765 0.727841 15.4595C0.620526 16.14 0.6498 16.8326 0.6498 17.518C0.6498 17.7522 0.635167 17.9911 0.654675 18.2253C0.710774 18.8668 1.1693 19.4546 1.8181 19.5863C2.06199 19.635 2.30832 19.6228 2.55709 19.6228H3.77417H7.65707H11.9229H14.618H14.8302C15.2424 19.6204 15.657 19.457 15.9375 19.1497C16.1741 18.8888 16.3083 18.5741 16.3375 18.2253C16.3448 18.1424 16.3424 18.0595 16.3424 17.9741V16.9937V16.3644C16.3424 16.1083 16.118 15.8644 15.8546 15.8766C15.596 15.8887 15.3716 16.0912 15.3716 16.3668Z" fill="black"/>
<path d="M23.2374 15.0836V16.0298V16.5981C23.2374 16.6421 23.235 16.6835 23.2374 16.7274V16.7347V16.7689C23.2301 16.7615 23.2642 16.6762 23.2448 16.7202C23.2399 16.7323 23.235 16.7543 23.2326 16.7665C23.2155 16.8591 23.235 16.7323 23.2472 16.7396C23.2472 16.7396 23.2277 16.7786 23.2252 16.7811C23.1764 16.8762 23.2326 16.7665 23.2374 16.7714C23.2399 16.7738 23.1716 16.8397 23.1716 16.8372C23.1521 16.8177 23.2642 16.7836 23.1935 16.8152C23.1813 16.8201 23.1643 16.8299 23.1521 16.8372C23.1082 16.8689 23.1935 16.8103 23.1959 16.8201C23.1959 16.8225 23.1423 16.8348 23.135 16.8372C23.0496 16.864 23.2301 16.8397 23.1325 16.8348H23.1082H22.9448H22.2326H19.8228H17.2594C16.8009 16.8348 16.3375 16.8177 15.8765 16.8348H15.8545L16.3423 17.3226C16.3423 16.8372 16.3667 16.3445 16.3179 15.8616C16.2204 14.9128 15.896 13.9933 15.3301 13.2201C14.996 12.7664 14.6131 12.3812 14.1667 12.0372C14.1984 12.2933 14.2326 12.547 14.2643 12.8031C14.2935 12.7787 14.3228 12.7518 14.3521 12.7275C14.3668 12.7153 14.4692 12.6372 14.374 12.7079C14.4253 12.6689 14.4765 12.6323 14.5301 12.5958C14.6594 12.5104 14.7936 12.4323 14.9302 12.3641C14.9643 12.347 15.0008 12.3323 15.035 12.3152C15.1521 12.2592 14.9399 12.3494 15.0618 12.303C15.1228 12.2811 15.1838 12.2567 15.2448 12.2372C15.396 12.186 15.5472 12.147 15.7033 12.1177C15.7399 12.1104 15.7838 12.0982 15.8228 12.0982C15.7008 12.1006 15.8301 12.0982 15.8521 12.0958C15.9204 12.0884 15.9862 12.0836 16.0545 12.0811C16.1131 12.0787 16.1716 12.0762 16.2325 12.0762H16.3935H18.2106H20.0301H20.2057H20.2594C20.3277 12.0762 20.396 12.0787 20.4643 12.0836C20.5179 12.0884 20.6204 12.0762 20.6667 12.1031C20.6448 12.1006 20.6253 12.0982 20.6033 12.0958C20.6253 12.0982 20.6472 12.1031 20.6691 12.1055C20.7009 12.1104 20.735 12.1177 20.7667 12.1226C20.8204 12.1324 20.874 12.1445 20.9277 12.1592C21.0545 12.1909 21.1813 12.2275 21.3033 12.2738C21.335 12.286 21.3643 12.2982 21.3935 12.308C21.496 12.347 21.3179 12.2714 21.3813 12.303C21.435 12.3299 21.4887 12.3519 21.5423 12.3787C21.6569 12.4373 21.7692 12.5006 21.8765 12.5714C21.9301 12.6055 21.9838 12.6421 22.035 12.6811C22.0448 12.6884 22.0521 12.6933 22.0618 12.7007C22.1033 12.7324 22.096 12.725 22.0399 12.6835C22.0691 12.6884 22.1155 12.7445 22.1399 12.7641C22.2423 12.8494 22.3374 12.9421 22.4277 13.0396C22.474 13.0908 22.5203 13.1421 22.5643 13.1957C22.5765 13.2128 22.6204 13.2494 22.6252 13.2714C22.5862 13.2177 22.5765 13.2079 22.5984 13.2348C22.6082 13.2469 22.6179 13.2592 22.6276 13.2738C22.7106 13.386 22.7838 13.5031 22.852 13.6251C22.8886 13.6909 22.9228 13.7567 22.957 13.825C22.9667 13.8445 22.9764 13.864 22.9838 13.8835C22.9935 13.9031 23.0009 13.9226 23.0106 13.9421C22.9838 13.8762 22.9789 13.8665 22.9984 13.9153C23.0496 14.047 23.096 14.1812 23.1326 14.3177C23.1497 14.3811 23.1643 14.447 23.1789 14.5104C23.1862 14.5421 23.1911 14.5762 23.1984 14.608C23.2033 14.6421 23.2131 14.7908 23.2057 14.6445C23.2179 14.7908 23.2374 14.9348 23.2374 15.0836C23.2399 15.3397 23.4618 15.5836 23.7252 15.5714C23.9887 15.5592 24.2155 15.3568 24.2131 15.0836C24.2082 13.9421 23.7107 12.8177 22.8375 12.0762C22.0887 11.4421 21.1619 11.1055 20.1814 11.1055H16.5106C16.2082 11.1055 15.9131 11.1128 15.6131 11.1567C14.8546 11.2664 14.157 11.6152 13.5814 12.1152C13.4667 12.2153 13.4277 12.381 13.4472 12.525C13.4692 12.6884 13.5545 12.7836 13.6789 12.881C13.5838 12.8079 13.6984 12.8981 13.7228 12.9177C13.7643 12.9518 13.8058 12.9884 13.8472 13.0225C13.9301 13.0933 14.0082 13.1689 14.0862 13.2469C14.1594 13.3201 14.2302 13.3957 14.296 13.4714C14.3277 13.5079 14.3594 13.5445 14.3911 13.5811C14.4057 13.6006 14.4228 13.6177 14.4374 13.6371C14.4472 13.6494 14.5082 13.7323 14.4667 13.6738C14.4203 13.6104 14.4911 13.7079 14.4935 13.7128C14.5082 13.7323 14.5228 13.7518 14.535 13.7713C14.5643 13.8103 14.5911 13.8518 14.6179 13.8908C14.6789 13.9811 14.7374 14.0762 14.7911 14.1689C14.8399 14.2543 14.8863 14.3396 14.9302 14.4274C14.9521 14.4713 14.974 14.5152 14.9936 14.5591C15.0033 14.5811 15.0131 14.603 15.0229 14.625C15.0692 14.725 14.9936 14.5494 15.0301 14.6445C15.1081 14.8396 15.1765 15.0396 15.2302 15.2421C15.257 15.3445 15.2814 15.4493 15.3009 15.5542C15.3106 15.6104 15.3204 15.6664 15.3301 15.7225C15.3325 15.7421 15.3447 15.7835 15.3423 15.7981C15.3399 15.781 15.3375 15.7615 15.335 15.7445C15.3375 15.764 15.3399 15.7835 15.3423 15.8006C15.374 16.0713 15.374 16.3444 15.374 16.6152V17.3176C15.374 17.5811 15.5984 17.8055 15.8618 17.8055H17.0351H19.6082H22.1155H22.8985C23.1204 17.8055 23.335 17.8104 23.5472 17.7201C23.9521 17.5494 24.2034 17.164 24.2155 16.725C24.2179 16.6055 24.2155 16.4836 24.2155 16.3616V15.1616V15.0763C24.2155 14.8201 23.9911 14.5762 23.7277 14.5884C23.4618 14.608 23.2374 14.8104 23.2374 15.0836Z" fill="black"/>
</svg>
