<svg width="24" height="24" viewBox="0 0 24 24" fill="none" xmlns="http://www.w3.org/2000/svg">
<path d="M21 12.0001C21.003 13.7869 20.4715 15.5337 19.474 17.0161C18.6514 18.2431 17.5391 19.2484 16.2355 19.9433C14.9319 20.6382 13.4772 21.0011 12 21.0001C10.5228 21.0011 9.06808 20.6382 7.76451 19.9433C6.46093 19.2484 5.34865 18.2431 4.526 17.0161C3.74273 15.8485 3.2439 14.5137 3.06951 13.1186C2.89511 11.7234 3.05 10.3069 3.52175 8.98239C3.9935 7.65793 4.769 6.4624 5.78607 5.49167C6.80314 4.52093 8.0335 3.80198 9.37851 3.39245C10.7235 2.98292 12.1458 2.89421 13.5312 3.13342C14.9167 3.37263 16.2269 3.93311 17.3567 4.76993C18.4865 5.60675 19.4046 6.69664 20.0373 7.95221C20.67 9.20779 20.9997 10.5941 21 12.0001Z" stroke="black"/>
<path d="M13.5004 9C13.5004 9.39782 13.3423 9.77936 13.061 10.0607C12.7797 10.342 12.3982 10.5 12.0004 10.5V11.5C12.3287 11.5 12.6538 11.4353 12.9571 11.3097C13.2604 11.1841 13.536 10.9999 13.7681 10.7678C14.0003 10.5356 14.1844 10.26 14.3101 9.95671C14.4357 9.65339 14.5004 9.3283 14.5004 9H13.5004ZM12.0004 10.5C11.6026 10.5 11.221 10.342 10.9397 10.0607C10.6584 9.77936 10.5004 9.39782 10.5004 9H9.50037C9.50037 9.3283 9.56504 9.65339 9.69068 9.95671C9.81631 10.26 10.0005 10.5356 10.2326 10.7678C10.7014 11.2366 11.3373 11.5 12.0004 11.5V10.5ZM10.5004 9C10.5004 8.60218 10.6584 8.22064 10.9397 7.93934C11.221 7.65804 11.6026 7.5 12.0004 7.5V6.5C11.3373 6.5 10.7014 6.76339 10.2326 7.23223C9.76377 7.70107 9.50037 8.33696 9.50037 9H10.5004ZM12.0004 7.5C12.3982 7.5 12.7797 7.65804 13.061 7.93934C13.3423 8.22064 13.5004 8.60218 13.5004 9H14.5004C14.5004 8.33696 14.237 7.70107 13.7681 7.23223C13.2993 6.76339 12.6634 6.5 12.0004 6.5V7.5ZM5.16637 17.856L4.68637 17.714L4.60938 17.975L4.78637 18.182L5.16637 17.856ZM18.8344 17.856L19.2144 18.182L19.3914 17.975L19.3134 17.714L18.8344 17.856ZM9.00037 15.5H15.0004V14.5H9.00037V15.5ZM9.00037 14.5C8.03131 14.5002 7.08817 14.813 6.31112 15.3921C5.53408 15.9711 4.96362 16.7854 4.68637 17.714L5.64537 17.999C5.86123 17.2769 6.30429 16.6437 6.90872 16.1935C7.51315 15.7433 8.2467 15.5001 9.00037 15.5V14.5ZM12.0004 20.5C10.7736 20.5013 9.56123 20.2364 8.4468 19.7237C7.33237 19.2109 6.34246 18.4625 5.54537 17.53L4.78637 18.182C5.67743 19.2238 6.78381 20.0599 8.02924 20.6327C9.27468 21.2055 10.6295 21.5014 12.0004 21.5V20.5ZM15.0004 15.5C15.7542 15.5001 16.4878 15.7435 17.0923 16.1939C17.6967 16.6443 18.1397 17.2777 18.3554 18L19.3134 17.714C19.0361 16.7854 18.4667 15.9711 17.6896 15.3921C16.9126 14.813 15.9694 14.5002 15.0004 14.5V15.5ZM18.4554 17.53C17.6583 18.4625 16.6684 19.2109 15.5539 19.7237C14.4395 20.2364 13.2271 20.5013 12.0004 20.5V21.5C13.3712 21.5014 14.7261 21.2055 15.9715 20.6327C17.2169 20.0599 18.3233 19.2238 19.2144 18.182L18.4554 17.53Z" fill="black"/>
</svg>
